<svg width="17" height="18" viewBox="0 0 17 18" fill="none" xmlns="http://www.w3.org/2000/svg">
<path d="M4.05279 2.78752C3.68314 2.37719 3.05083 2.3442 2.6405 2.71385C2.23016 3.08351 2.19718 3.71581 2.56683 4.12615L4.05279 2.78752ZM8.41918 5.80004L8.42061 4.80003L8.41774 4.80004L8.41918 5.80004ZM14.2715 4.12615C14.6412 3.71581 14.6082 3.08351 14.1979 2.71385C13.7875 2.3442 13.1552 2.37719 12.7856 2.78752L14.2715 4.12615ZM12.7856 15.2125C13.1552 15.6229 13.7875 15.6559 14.1979 15.2862C14.6082 14.9166 14.6412 14.2843 14.2715 13.8739L12.7856 15.2125ZM8.41918 12.2L8.41774 13.2L8.42061 13.2L8.41918 12.2ZM2.56683 13.8739C2.19718 14.2843 2.23016 14.9166 2.6405 15.2862C3.05083 15.6559 3.68314 15.6229 4.05279 15.2125L2.56683 13.8739ZM8.41917 18C13.0556 18 16.645 13.8725 16.645 9H14.645C14.645 12.9643 11.7644 16 8.41917 16V18ZM16.645 9C16.645 4.1275 13.0556 0 8.41917 0V2C11.7644 2 14.645 5.0357 14.645 9H16.645ZM8.41917 0C3.78275 0 0.193359 4.1275 0.193359 9H2.19336C2.19336 5.0357 5.07396 2 8.41917 2V0ZM0.193359 9C0.193359 13.8725 3.78275 18 8.41917 18V16C5.07396 16 2.19336 12.9643 2.19336 9H0.193359ZM1.19336 10H15.645V8H1.19336V10ZM8.41917 18C9.22197 18 9.85538 17.5467 10.3045 17.0208C10.7569 16.4913 11.119 15.7838 11.4034 14.9967C11.9752 13.4141 12.3095 11.2939 12.3095 9H10.3095C10.3095 11.1245 9.99672 13.0043 9.5224 14.3171C9.28372 14.9777 9.02304 15.4418 8.7838 15.7218C8.66682 15.8588 8.57216 15.9315 8.50881 15.9673C8.45073 16.0002 8.4241 16 8.41917 16V18ZM12.3095 9C12.3095 6.70614 11.9752 4.58588 11.4034 3.0033C11.119 2.2162 10.7569 1.50872 10.3045 0.979164C9.85538 0.453348 9.22197 0 8.41917 0V2C8.4241 2 8.45073 1.99976 8.50881 2.03265C8.57216 2.06854 8.66682 2.14121 8.7838 2.27816C9.02304 2.55823 9.28372 3.0223 9.5224 3.6829C9.99672 4.99572 10.3095 6.87546 10.3095 9H12.3095ZM8.41917 0C7.61636 0 6.98295 0.453348 6.5338 0.979164C6.08146 1.50872 5.71932 2.2162 5.43494 3.0033C4.86315 4.58588 4.52884 6.70614 4.52884 9H6.52884C6.52884 6.87546 6.84161 4.99572 7.31593 3.6829C7.55461 3.0223 7.81529 2.55823 8.05453 2.27816C8.17151 2.14121 8.26617 2.06854 8.32952 2.03265C8.3876 1.99976 8.41423 2 8.41917 2V0ZM4.52884 9C4.52884 11.2939 4.86315 13.4141 5.43494 14.9967C5.71932 15.7838 6.08146 16.4913 6.5338 17.0208C6.98295 17.5467 7.61636 18 8.41917 18V16C8.41423 16 8.3876 16.0002 8.32952 15.9673C8.26617 15.9315 8.17151 15.8588 8.05453 15.7218C7.81529 15.4418 7.55461 14.9777 7.31593 14.3171C6.84161 13.0043 6.52884 11.1245 6.52884 9H4.52884ZM2.56683 4.12615C3.32474 4.96748 4.23095 5.64081 5.23642 6.10193L6.07014 4.28399C5.32194 3.94086 4.63532 3.43417 4.05279 2.78752L2.56683 4.12615ZM5.23642 6.10193C6.24226 6.56322 7.32474 6.80161 8.42061 6.80003L8.41774 4.80004C7.61545 4.80119 6.81797 4.62695 6.07014 4.28399L5.23642 6.10193ZM8.41774 6.80003C9.51362 6.80161 10.5961 6.56322 11.6019 6.10193L10.7682 4.28399C10.0204 4.62695 9.22291 4.80119 8.42061 4.80004L8.41774 6.80003ZM11.6019 6.10193C12.6074 5.64081 13.5136 4.96748 14.2715 4.12615L12.7856 2.78752C12.203 3.43417 11.5164 3.94086 10.7682 4.28399L11.6019 6.10193ZM14.2715 13.8739C13.5136 13.0326 12.6074 12.3593 11.6019 11.8981L10.7682 13.7161C11.5164 14.0592 12.203 14.5659 12.7856 15.2125L14.2715 13.8739ZM11.6019 11.8981C10.5961 11.4369 9.51362 11.1985 8.41774 11.2L8.42061 13.2C9.22291 13.1989 10.0204 13.3731 10.7682 13.7161L11.6019 11.8981ZM8.42061 11.2C7.32474 11.1985 6.24226 11.4369 5.23642 11.8981L6.07014 13.7161C6.81797 13.3731 7.61545 13.1989 8.41774 13.2L8.42061 11.2ZM5.23642 11.8981C4.23095 12.3593 3.32474 13.0326 2.56683 13.8739L4.05279 15.2125C4.63532 14.5659 5.32194 14.0592 6.07014 13.7161L5.23642 11.8981Z" fill="#B1B1B1"/>
</svg>
