<svg width="18" height="15" viewBox="0 0 18 15" fill="none" xmlns="http://www.w3.org/2000/svg">
<path d="M14.4617 1.78611C13.387 1.24948 12.2349 0.852835 11.0302 0.627294C11.0195 0.625014 11.0084 0.626484 10.9984 0.6315C10.9885 0.636516 10.9802 0.644831 10.9747 0.655293C10.8272 0.942274 10.6628 1.31636 10.5476 1.6119C9.26989 1.40054 7.9709 1.40054 6.69319 1.6119C6.56488 1.28437 6.42018 0.965002 6.25977 0.655293C6.25433 0.644702 6.24611 0.636199 6.23619 0.630919C6.22628 0.625638 6.21514 0.623831 6.20428 0.625739C5.00026 0.85128 3.84822 1.24792 2.77275 1.78533C2.76349 1.78963 2.75565 1.79695 2.75027 1.80633C0.564203 5.36443 -0.0349973 8.83464 0.259335 12.2613C0.260154 12.2697 0.262507 12.2778 0.26625 12.2852C0.269994 12.2925 0.27505 12.299 0.281111 12.3041C1.55706 13.3326 2.98021 14.116 4.49097 14.6217C4.5015 14.6253 4.51277 14.6253 4.52329 14.6217C4.53382 14.6181 4.54312 14.611 4.54998 14.6015C4.87452 14.1193 5.16393 13.6099 5.4112 13.0748C5.42595 13.0437 5.4119 13.0064 5.3824 12.9939C4.92861 12.8047 4.48892 12.5764 4.06739 12.3111C4.05981 12.3063 4.05343 12.2995 4.04881 12.2913C4.04419 12.2831 4.04148 12.2738 4.04093 12.2642C4.04037 12.2545 4.04198 12.2449 4.04562 12.2361C4.04926 12.2273 4.0548 12.2197 4.06177 12.2139C4.15028 12.1415 4.23879 12.0661 4.32308 11.9907C4.33067 11.9839 4.33981 11.9796 4.34948 11.9782C4.35916 11.9768 4.36899 11.9784 4.37787 11.9829C7.13645 13.3548 10.124 13.3548 12.8503 11.9829C12.8592 11.9782 12.8691 11.9763 12.8789 11.9776C12.8887 11.9788 12.898 11.9831 12.9058 11.9899C12.9901 12.0661 13.0779 12.1415 13.1671 12.2139C13.1741 12.2196 13.1798 12.2271 13.1835 12.2358C13.1873 12.2445 13.189 12.2541 13.1886 12.2637C13.1882 12.2734 13.1856 12.2827 13.1811 12.291C13.1766 12.2993 13.1704 12.3062 13.1629 12.3111C12.7428 12.5786 12.3059 12.8049 11.8472 12.9931C11.8401 12.996 11.8337 13.0004 11.8283 13.0062C11.823 13.012 11.8188 13.019 11.8161 13.0268C11.8133 13.0345 11.8121 13.0428 11.8125 13.0511C11.8129 13.0593 11.8149 13.0674 11.8184 13.0748C12.0712 13.6091 12.3607 14.1177 12.6789 14.6007C12.6855 14.6106 12.6947 14.618 12.7053 14.6219C12.7158 14.6258 12.7272 14.626 12.7379 14.6225C14.2512 14.1182 15.6767 13.3344 16.9541 12.3041C16.9603 12.2993 16.9655 12.293 16.9694 12.2858C16.9733 12.2785 16.9757 12.2705 16.9765 12.2621C17.3278 8.30035 16.3879 4.85813 14.4835 1.80788C14.4788 1.79797 14.4711 1.79024 14.4617 1.78611ZM5.82354 10.1747C4.99323 10.1747 4.30833 9.34328 4.30833 8.32368C4.30833 7.3033 4.97989 6.47269 5.82354 6.47269C6.67352 6.47269 7.3521 7.3103 7.33875 8.32368C7.33875 9.34406 6.6672 10.1747 5.82354 10.1747ZM11.4257 10.1747C10.5947 10.1747 9.91047 9.34328 9.91047 8.32368C9.91047 7.3033 10.5813 6.47269 11.4257 6.47269C12.2757 6.47269 12.9542 7.3103 12.9409 8.32368C12.9409 9.34406 12.2764 10.1747 11.4257 10.1747Z" fill="#B1B1B1"/>
</svg>
