<svg width="35" height="36" viewBox="0 0 35 36" fill="none" xmlns="http://www.w3.org/2000/svg">
<path d="M10.75 10.8516C9.75544 10.8516 8.80161 11.2467 8.09835 11.9499C7.39509 12.6532 7 13.607 7 14.6016V15.3516H28V14.6016C28 13.607 27.6049 12.6532 26.9016 11.9499C26.1984 11.2467 25.2446 10.8516 24.25 10.8516H10.75ZM28 16.8516H7V22.1016C7 23.0961 7.39509 24.05 8.09835 24.7532C8.80161 25.4565 9.75544 25.8516 10.75 25.8516H24.25C25.2446 25.8516 26.1984 25.4565 26.9016 24.7532C27.6049 24.05 28 23.0961 28 22.1016V16.8516ZM21.25 21.3516H24.25C24.4489 21.3516 24.6397 21.4306 24.7803 21.5712C24.921 21.7119 25 21.9026 25 22.1016C25 22.3005 24.921 22.4912 24.7803 22.6319C24.6397 22.7725 24.4489 22.8516 24.25 22.8516H21.25C21.0511 22.8516 20.8603 22.7725 20.7197 22.6319C20.579 22.4912 20.5 22.3005 20.5 22.1016C20.5 21.9026 20.579 21.7119 20.7197 21.5712C20.8603 21.4306 21.0511 21.3516 21.25 21.3516Z" fill="#40D04F"/>
</svg>
