<svg width="31" height="32" viewBox="0 0 31 32" fill="none" xmlns="http://www.w3.org/2000/svg">
<path d="M12.6579 14.6289C11.9804 14.6289 11.4467 15.2622 11.4467 16.0356C11.4467 16.8062 11.9929 17.4422 12.6579 17.4422C13.3342 17.4422 13.8679 16.8062 13.8679 16.0356C13.8817 15.2609 13.3342 14.6289 12.6579 14.6289ZM16.9929 14.6289C16.3154 14.6289 15.7817 15.2622 15.7817 16.0356C15.7817 16.8062 16.3279 17.4422 16.9929 17.4422C17.6692 17.4422 18.2029 16.8062 18.2029 16.0356C18.2017 15.2609 17.6692 14.6289 16.9929 14.6289Z" fill="white"/>
<path d="M22.7641 4H6.85038C6.52996 4.00087 6.21283 4.06906 5.91711 4.20067C5.62139 4.33227 5.35287 4.52472 5.12687 4.76701C4.90088 5.00931 4.72184 5.29672 4.59997 5.61283C4.47811 5.92893 4.41581 6.26755 4.41663 6.60933V23.7347C4.41663 25.1787 5.50913 26.344 6.85038 26.344H20.3166L19.6854 23.9987L21.2066 25.5067L22.6429 26.9253L25.1979 29.3333V6.60933C25.1987 6.26755 25.1364 5.92893 25.0145 5.61283C24.8927 5.29672 24.7136 5.00931 24.4876 4.76701C24.2616 4.52472 23.9931 4.33227 23.6974 4.20067C23.4017 4.06906 23.0846 4.00087 22.7641 4ZM18.1791 20.5427C18.1791 20.5427 17.7516 19.9987 17.3966 19.5147C18.9516 19.0453 19.5454 18.008 19.5454 18.008C19.0579 18.3493 18.5954 18.592 18.1791 18.7573C16.6637 19.4338 14.9949 19.6184 13.3816 19.288C12.7855 19.1631 12.2014 18.9801 11.6366 18.7413C11.3388 18.6206 11.0493 18.4776 10.7704 18.3133C10.7341 18.2853 10.6991 18.2747 10.6641 18.2493C10.6454 18.2398 10.6288 18.2262 10.6154 18.2093C10.4016 18.084 10.2829 17.996 10.2829 17.996C10.2829 17.996 10.8529 19.0093 12.3616 19.4907C12.0054 19.9707 11.5654 20.5427 11.5654 20.5427C8.94163 20.4533 7.94538 18.6173 7.94538 18.6173C7.94538 14.5387 9.65538 11.2333 9.65538 11.2333C11.3654 9.864 12.9916 9.90267 12.9916 9.90267L13.1104 10.0547C10.9729 10.7147 9.98663 11.7147 9.98663 11.7147C9.98663 11.7147 10.2491 11.5627 10.6879 11.348C11.9579 10.7533 12.9666 10.588 13.3829 10.5493C13.4541 10.5373 13.5141 10.524 13.5854 10.524C15.6444 10.228 17.7381 10.6454 19.5579 11.7147C19.5579 11.7147 18.6191 10.7653 16.6004 10.1067L16.7666 9.904C16.7666 9.904 18.3941 9.86533 20.1029 11.2347C20.1029 11.2347 21.8129 14.54 21.8129 18.6187C21.8129 18.6173 20.8041 20.4533 18.1791 20.5427Z" fill="#9AA4BF"/>
</svg>
