<svg width="17" height="17" viewBox="0 0 17 17" fill="none" xmlns="http://www.w3.org/2000/svg">
<path fill-rule="evenodd" clip-rule="evenodd" d="M0.708252 2.0109C0.708252 1.66561 0.845418 1.33447 1.08957 1.09031C1.33373 0.846152 1.66488 0.708986 2.01017 0.708986H14.9883C15.1594 0.708707 15.3289 0.742181 15.487 0.807492C15.6452 0.872803 15.7889 0.968668 15.91 1.0896C16.031 1.21053 16.1271 1.35415 16.1925 1.51224C16.258 1.67033 16.2917 1.83979 16.2916 2.0109V14.989C16.2918 15.1601 16.2582 15.3296 16.1928 15.4878C16.1274 15.646 16.0315 15.7897 15.9105 15.9107C15.7895 16.0318 15.6459 16.1278 15.4877 16.1933C15.3296 16.2588 15.1601 16.2924 14.989 16.2923H2.01017C1.83914 16.2923 1.66979 16.2586 1.51178 16.1931C1.35378 16.1277 1.21023 16.0317 1.08932 15.9107C0.968421 15.7898 0.872537 15.6462 0.807151 15.4881C0.741766 15.3301 0.708159 15.1607 0.708252 14.9897V2.0109ZM6.87642 6.65049H8.98654V7.71015C9.29113 7.10099 10.0703 6.55274 11.2412 6.55274C13.4859 6.55274 14.0178 7.76611 14.0178 9.9924V14.1163H11.7462V10.4996C11.7462 9.23165 11.4416 8.51624 10.6681 8.51624C9.595 8.51624 9.14875 9.28761 9.14875 10.4996V14.1163H6.87642V6.65049ZM2.98059 14.0193H5.25292V6.55274H2.98059V14.0186V14.0193ZM5.57804 4.11749C5.58233 4.31205 5.54771 4.5055 5.47621 4.6865C5.40472 4.8675 5.29779 5.03239 5.16171 5.17151C5.02562 5.31062 4.86312 5.42115 4.68374 5.49662C4.50436 5.57208 4.31171 5.61095 4.11711 5.61095C3.9225 5.61095 3.72985 5.57208 3.55047 5.49662C3.37109 5.42115 3.20859 5.31062 3.07251 5.17151C2.93642 5.03239 2.82949 4.8675 2.758 4.6865C2.68651 4.5055 2.65188 4.31205 2.65617 4.11749C2.66458 3.73559 2.82219 3.37217 3.09525 3.10506C3.36832 2.83794 3.73512 2.68837 4.11711 2.68837C4.49909 2.68837 4.8659 2.83794 5.13896 3.10506C5.41202 3.37217 5.56963 3.73559 5.57804 4.11749Z" fill="white"/>
</svg>
