<svg width="20" height="20" viewBox="0 0 20 20" fill="none" xmlns="http://www.w3.org/2000/svg">
<path d="M7.98701 4.18C7.68792 4.92934 7.46383 5.70647 7.31801 6.5H12.682C12.5359 5.70643 12.3115 4.92929 12.012 4.18C11.711 3.447 11.364 2.886 11.004 2.517C10.646 2.149 10.307 2 10 2C9.69301 2 9.35401 2.149 8.99601 2.517C8.63601 2.887 8.28901 3.447 7.98701 4.18ZM7.89101 2.281C7.57701 2.707 7.30101 3.222 7.06301 3.799C6.74301 4.579 6.48301 5.493 6.30101 6.5H2.80401C3.30351 5.47572 4.01556 4.56964 4.89272 3.84215C5.76988 3.11466 6.79201 2.58246 7.89101 2.281V2.281ZM12.11 2.281C12.423 2.707 12.7 3.222 12.937 3.799C13.257 4.579 13.517 5.493 13.699 6.5H17.196C16.6965 5.47572 15.9845 4.56964 15.1073 3.84215C14.2301 3.11466 13.208 2.58246 12.109 2.281H12.11ZM17.602 7.5H13.85C13.948 8.295 14 9.134 14 10C14 10.866 13.948 11.705 13.85 12.5H17.602C17.8666 11.6931 18.001 10.8492 18 10C18.0007 9.15084 17.8663 8.30697 17.602 7.5V7.5ZM17.196 13.5H13.699C13.517 14.507 13.258 15.422 12.937 16.2C12.7235 16.7378 12.4458 17.2478 12.11 17.719C13.2088 17.4174 14.2307 16.8852 15.1077 16.1577C15.9847 15.4302 16.6966 14.5242 17.196 13.5V13.5ZM10 18C10.307 18 10.646 17.851 11.004 17.483C11.364 17.113 11.711 16.553 12.012 15.82C12.3115 15.0707 12.5359 14.2936 12.682 13.5H7.31801C7.48601 14.373 7.71501 15.157 7.98801 15.82C8.28901 16.553 8.63601 17.114 8.99601 17.483C9.35401 17.851 9.69301 18 10 18V18ZM7.89001 17.719C6.79138 17.4173 5.76964 16.885 4.89284 16.1575C4.01604 15.43 3.30429 14.5241 2.80501 13.5H6.30201C6.48401 14.507 6.74301 15.422 7.06401 16.2C7.30101 16.778 7.57801 17.293 7.89201 17.719H7.89001ZM2.39901 12.5H6.15001C6.04916 11.6705 5.99907 10.8356 6.00001 10C6.00001 9.134 6.05201 8.295 6.15001 7.5H2.39801C2.13338 8.3069 1.99903 9.15082 2.00001 10C2.00001 10.873 2.14001 11.713 2.39801 12.5H2.39901ZM7.00001 10C7.00001 9.125 7.05601 8.285 7.15801 7.5H12.842C12.944 8.285 13 9.125 13 10C13 10.875 12.944 11.714 12.842 12.5H7.15801C7.05164 11.6709 6.99887 10.8359 7.00001 10V10Z" fill="#9AA4BF"/>
</svg>
