<svg width="42" height="50" viewBox="0 0 42 50" fill="none" xmlns="http://www.w3.org/2000/svg">
<path fill-rule="evenodd" clip-rule="evenodd" d="M32.1279 0.494862H32.0863C28.2801 0.494862 25.0106 2.96316 23.8227 6.38082C23.5021 6.19606 23.182 6.01076 22.8624 5.82574C22.5778 5.66098 22.2936 5.49644 22.0097 5.33269L21.93 5.28597C21.518 5.0473 21.1283 4.92796 20.7387 4.92796C20.3525 4.92796 19.9681 5.04555 19.5612 5.28083C13.3203 8.89418 7.68866 12.1425 2.34471 15.2109C1.57004 15.6548 1.19906 16.2392 1.15874 17.0892C1.20717 16.2543 1.57827 15.6777 2.34293 15.2388C7.68688 12.1703 13.3183 8.92191 19.5594 5.30864C20.375 4.83644 21.1057 4.83819 21.9284 5.31387L22.0079 5.3606C22.6103 5.70806 23.2143 6.05726 23.8201 6.40821C25.0105 2.98986 28.2809 0.522794 32.0846 0.522794H32.1262C34.4656 0.533168 36.6597 1.45507 38.3031 3.11731C39.9603 4.79167 40.8625 7.01946 40.8435 9.38743C40.8424 9.54418 40.8373 9.70025 40.8281 9.85551C40.8383 9.69104 40.844 9.52565 40.8451 9.3595C40.8643 6.99153 39.962 4.76548 38.3048 3.08938C36.6615 1.42714 34.4675 0.505236 32.1279 0.494862ZM38.7561 14.993C38.7506 14.9994 38.7451 15.0058 38.7396 15.0122C38.7942 15.0437 38.8489 15.0749 38.9035 15.106L38.9057 15.1073L38.907 15.108C38.962 15.1393 39.017 15.1707 39.072 15.2024C39.9466 15.7022 40.3171 16.3543 40.3136 17.3835C40.2911 24.586 40.2911 31.0064 40.3154 37.012C40.3158 37.0954 40.3137 37.1764 40.309 37.2551C40.3149 37.1677 40.3176 37.0774 40.3172 36.9841C40.2946 30.9787 40.2928 24.5581 40.3154 17.3557C40.3188 16.3284 39.9483 15.6762 39.0737 15.1747C39.017 15.1419 38.9603 15.1096 38.9035 15.0773C38.8544 15.0493 38.8052 15.0213 38.7561 14.993ZM36.7706 14.0712C35.5152 15.2941 33.8665 15.9635 32.1002 15.9635H32.1002C32.0586 15.9635 32.017 15.9635 31.9757 15.9617C28.2335 15.8943 25.3484 12.8845 25.4074 9.11045C25.409 8.99766 25.4139 8.88566 25.4217 8.77448C25.4127 8.89478 25.4072 9.01603 25.4053 9.13821C25.3464 12.9124 28.2314 15.922 31.9736 15.9895C33.7885 16.0206 35.4855 15.3495 36.7705 14.0972C36.7984 14.0703 36.8239 14.0422 36.8495 14.0139L36.8496 14.0138C36.8668 13.9949 36.884 13.9759 36.9021 13.9571L36.9022 13.9572C38.0987 12.7222 38.7671 11.1049 38.7793 9.37182V9.37008M38.7795 9.33142C38.7795 9.3356 38.7795 9.33979 38.7794 9.34398V9.34572C38.7672 11.0789 38.0988 12.6962 36.9022 13.9311C36.8815 13.9518 36.8618 13.9737 36.8421 13.9956C36.819 14.0212 36.7958 14.0469 36.7706 14.0712M23.5699 5.67004C25.0054 2.25743 28.3562 0.00366178 32.0863 0.00366178L32.1295 0C34.6006 0.0103732 36.9159 0.984145 38.6527 2.73983C40.4017 4.50754 41.3542 6.85816 41.3351 9.35758C41.3213 11.3467 40.6667 13.2736 39.4805 14.8441C40.4 15.4271 40.8087 16.2089 40.8053 17.3539C40.7828 24.5684 40.7845 30.9873 40.807 36.9789C40.8121 38.207 40.3359 39.0286 39.2606 39.6443C35.6968 41.6871 31.9771 43.8319 28.6955 45.7242C26.55 46.9627 24.4044 48.1993 22.2571 49.4344C22.0159 49.5734 21.7671 49.6899 21.5035 49.8133L21.4484 49.8391C21.3721 49.8757 21.2943 49.9121 21.2162 49.9486L21.206 49.9534L21.1056 50H20.9948H20.4752H20.3454L20.2328 49.936L16.1392 47.6027L15.9296 47.4833C15.1724 47.0517 14.4151 46.6201 13.6578 46.1885C11.4262 44.9168 9.19458 43.6451 6.963 42.3704C6.38707 42.0413 5.8001 41.7011 5.25515 41.3853C5.11843 41.306 4.98435 41.2283 4.85375 41.1527C4.73738 41.0853 4.6205 41.0176 4.50319 40.9496C3.69886 40.4836 2.87409 40.0058 2.05192 39.5423C1.10468 39.0079 0.663091 38.2416 0.664837 37.1329C0.671731 29.4756 0.671731 23.1589 0.663091 17.2554C0.661259 16.1329 1.11856 15.3494 2.09861 14.7855C7.42362 11.7274 13.055 8.48082 19.3133 4.85709C19.8017 4.5751 20.2675 4.43851 20.7385 4.43851C21.2113 4.43851 21.6823 4.57684 22.1758 4.86224L22.2555 4.90896L23.2529 5.48663L23.5699 5.67004ZM32.1002 15.4739H32.1002C33.7297 15.4739 35.2675 14.8513 36.4277 13.72C36.4418 13.7072 36.4541 13.6933 36.4665 13.6793C36.4708 13.6744 36.4751 13.6695 36.4796 13.6646C36.5021 13.6387 36.5247 13.6128 36.5489 13.5885C37.6589 12.4436 38.2771 10.9353 38.2875 9.33875C38.3014 7.65402 37.6607 6.07137 36.4848 4.88133C35.3229 3.70515 33.7696 3.05303 32.1175 3.04614H32.0864C29.3261 3.04614 26.8758 4.90905 26.1293 7.57443C25.9839 8.0951 25.906 8.61402 25.8973 9.11734C25.8419 12.6182 28.5157 15.4099 31.9842 15.4722C32.0222 15.4739 32.0621 15.4739 32.1002 15.4739ZM15.7011 32.3123H13.2336L8.32596 25.2881V32.3123H6.54232H6.15449V22.1834H8.6239L8.85936 22.5155L13.5297 29.0969V22.1816H15.7013V32.3123H15.7011ZM25.7796 23.9147H20.3266V26.3968H25.2652V28.13H20.3265V32.3123H17.8883V22.1834H25.7796V23.9147ZM32.2024 23.9286V30.2039V32.3123H29.7641V26.504V23.9285V23.9147H26.6402V22.1816H34.9472H35.3143V23.9147H35.3125H34.5592L32.2024 23.9286ZM36.6978 8.17299L36.9368 7.10228H33.5999H31.9271L29.3762 10.0341L30.1556 7.10054H28.7304L27.7278 11.3399H30.1469L32.689 8.21962C32.6509 8.30444 32.6164 8.39431 32.5869 8.48601L32.0172 10.4215L32.8796 11.3348H35.9932L36.2564 10.1569H33.5672L34.1958 8.17464H36.698V8.17299H36.6978Z" fill="#E28058"/>
</svg>
