<svg width="15" height="16" viewBox="0 0 15 16" fill="none" xmlns="http://www.w3.org/2000/svg">
<path d="M4.375 8.15625C4.375 8.03193 4.42439 7.9127 4.51229 7.82479C4.6002 7.73689 4.71943 7.6875 4.84375 7.6875C4.96807 7.6875 5.0873 7.73689 5.17521 7.82479C5.26311 7.9127 5.3125 8.03193 5.3125 8.15625C5.3125 8.28057 5.26311 8.3998 5.17521 8.48771C5.0873 8.57561 4.96807 8.625 4.84375 8.625C4.71943 8.625 4.6002 8.57561 4.51229 8.48771C4.42439 8.3998 4.375 8.28057 4.375 8.15625ZM4.84375 9.5625C4.71943 9.5625 4.6002 9.61189 4.51229 9.69979C4.42439 9.7877 4.375 9.90693 4.375 10.0312C4.375 10.1556 4.42439 10.2748 4.51229 10.3627C4.6002 10.4506 4.71943 10.5 4.84375 10.5C4.96807 10.5 5.0873 10.4506 5.17521 10.3627C5.26311 10.2748 5.3125 10.1556 5.3125 10.0312C5.3125 9.90693 5.26311 9.7877 5.17521 9.69979C5.0873 9.61189 4.96807 9.5625 4.84375 9.5625ZM4.375 11.9062C4.375 11.7819 4.42439 11.6627 4.51229 11.5748C4.6002 11.4869 4.71943 11.4375 4.84375 11.4375C4.96807 11.4375 5.0873 11.4869 5.17521 11.5748C5.26311 11.6627 5.3125 11.7819 5.3125 11.9062C5.3125 12.0306 5.26311 12.1498 5.17521 12.2377C5.0873 12.3256 4.96807 12.375 4.84375 12.375C4.71943 12.375 4.6002 12.3256 4.51229 12.2377C4.42439 12.1498 4.375 12.0306 4.375 11.9062ZM6.71875 7.6875C6.59443 7.6875 6.4752 7.73689 6.38729 7.82479C6.29939 7.9127 6.25 8.03193 6.25 8.15625C6.25 8.28057 6.29939 8.3998 6.38729 8.48771C6.4752 8.57561 6.59443 8.625 6.71875 8.625H10.1562C10.2806 8.625 10.3998 8.57561 10.4877 8.48771C10.5756 8.3998 10.625 8.28057 10.625 8.15625C10.625 8.03193 10.5756 7.9127 10.4877 7.82479C10.3998 7.73689 10.2806 7.6875 10.1562 7.6875H6.71875ZM6.25 10.0312C6.25 9.90693 6.29939 9.7877 6.38729 9.69979C6.4752 9.61189 6.59443 9.5625 6.71875 9.5625H10.1562C10.2806 9.5625 10.3998 9.61189 10.4877 9.69979C10.5756 9.7877 10.625 9.90693 10.625 10.0312C10.625 10.1556 10.5756 10.2748 10.4877 10.3627C10.3998 10.4506 10.2806 10.5 10.1562 10.5H6.71875C6.59443 10.5 6.4752 10.4506 6.38729 10.3627C6.29939 10.2748 6.25 10.1556 6.25 10.0312ZM6.71875 11.4375C6.59443 11.4375 6.4752 11.4869 6.38729 11.5748C6.29939 11.6627 6.25 11.7819 6.25 11.9062C6.25 12.0306 6.29939 12.1498 6.38729 12.2377C6.4752 12.3256 6.59443 12.375 6.71875 12.375H10.1562C10.2806 12.375 10.3998 12.3256 10.4877 12.2377C10.5756 12.1498 10.625 12.0306 10.625 11.9062C10.625 11.7819 10.5756 11.6627 10.4877 11.5748C10.3998 11.4869 10.2806 11.4375 10.1562 11.4375H6.71875ZM12.1337 5.75875L8.49062 2.11625C8.48096 2.10727 8.47073 2.09892 8.46 2.09125C8.45227 2.08528 8.44476 2.07903 8.4375 2.0725C8.3945 2.03192 8.34876 1.99433 8.30062 1.96C8.28462 1.94968 8.26791 1.94049 8.25063 1.9325L8.22062 1.9175L8.18937 1.89938C8.15562 1.88 8.12125 1.86 8.08563 1.845C7.96116 1.79529 7.82944 1.76616 7.69562 1.75875C7.68326 1.75795 7.67096 1.75648 7.65875 1.75437C7.64179 1.75176 7.62466 1.75029 7.6075 1.75H3.75C3.41848 1.75 3.10054 1.8817 2.86612 2.11612C2.6317 2.35054 2.5 2.66848 2.5 3V13C2.5 13.3315 2.6317 13.6495 2.86612 13.8839C3.10054 14.1183 3.41848 14.25 3.75 14.25H11.25C11.5815 14.25 11.8995 14.1183 12.1339 13.8839C12.3683 13.6495 12.5 13.3315 12.5 13V6.6425C12.4999 6.31101 12.3682 5.99312 12.1337 5.75875ZM11.5625 13C11.5625 13.0829 11.5296 13.1624 11.471 13.221C11.4124 13.2796 11.3329 13.3125 11.25 13.3125H3.75C3.66712 13.3125 3.58763 13.2796 3.52903 13.221C3.47042 13.1624 3.4375 13.0829 3.4375 13V3C3.4375 2.91712 3.47042 2.83763 3.52903 2.77903C3.58763 2.72042 3.66712 2.6875 3.75 2.6875H7.5V5.5C7.5 5.83152 7.6317 6.14946 7.86612 6.38388C8.10054 6.6183 8.41848 6.75 8.75 6.75H11.5625V13ZM8.4375 3.38812L10.8612 5.8125H8.75C8.66712 5.8125 8.58763 5.77958 8.52903 5.72097C8.47042 5.66237 8.4375 5.58288 8.4375 5.5V3.38812Z" fill="#9AA4BF"/>
</svg>
