<svg width="21" height="15" viewBox="0 0 21 15" fill="none" xmlns="http://www.w3.org/2000/svg">
<path d="M17.5308 1.24315C16.2558 0.668149 14.8892 0.243149 13.46 0.00148191C13.4473 -0.000961494 13.4341 0.000613124 13.4223 0.00598802C13.4105 0.0113629 13.4007 0.0202722 13.3942 0.0314819C13.2192 0.338982 13.0242 0.739815 12.8875 1.05648C11.3718 0.830013 9.83076 0.830013 8.31501 1.05648C8.16279 0.705532 7.99113 0.363335 7.80084 0.0314819C7.79439 0.0201342 7.78464 0.0110234 7.77287 0.00536535C7.76111 -0.000292675 7.7479 -0.00222891 7.73501 -0.000184835C6.30668 0.241482 4.94001 0.666482 3.66418 1.24232C3.6532 1.24692 3.6439 1.25477 3.63751 1.26482C1.04418 5.07732 0.333343 8.79565 0.68251 12.4673C0.683482 12.4763 0.686273 12.485 0.690714 12.4929C0.695155 12.5008 0.701153 12.5077 0.708343 12.5131C2.222 13.6152 3.91029 14.4547 5.70251 14.9965C5.715 15.0003 5.72837 15.0003 5.74085 14.9965C5.75334 14.9926 5.76437 14.985 5.77251 14.9748C6.15817 14.459 6.49992 13.9118 6.79418 13.339C6.79826 13.3312 6.80061 13.3225 6.80108 13.3137C6.80154 13.3049 6.80011 13.2961 6.79687 13.2879C6.79363 13.2796 6.78866 13.2722 6.7823 13.2661C6.77594 13.2599 6.76834 13.2553 6.76001 13.2523C6.22168 13.0496 5.70008 12.8049 5.20001 12.5206C5.19102 12.5155 5.18345 12.5082 5.17797 12.4995C5.1725 12.4907 5.16928 12.4807 5.16862 12.4704C5.16796 12.46 5.16987 12.4497 5.17419 12.4403C5.1785 12.4309 5.18508 12.4227 5.19334 12.4165C5.29834 12.339 5.40334 12.2582 5.50334 12.1773C5.51234 12.17 5.52319 12.1654 5.53466 12.1639C5.54614 12.1625 5.5578 12.1642 5.56834 12.169C8.84084 13.639 12.385 13.639 15.6192 12.169C15.6298 12.1639 15.6415 12.162 15.6532 12.1633C15.6648 12.1646 15.6758 12.1692 15.685 12.1765C15.785 12.2581 15.8892 12.339 15.995 12.4165C16.0033 12.4226 16.01 12.4307 16.0145 12.44C16.0189 12.4493 16.021 12.4596 16.0205 12.4699C16.02 12.4802 16.017 12.4903 16.0117 12.4991C16.0063 12.508 15.9989 12.5154 15.99 12.5206C15.4917 12.8073 14.9733 13.0498 14.4292 13.2515C14.4208 13.2545 14.4132 13.2593 14.4068 13.2655C14.4005 13.2717 14.3955 13.2792 14.3923 13.2875C14.3891 13.2958 14.3876 13.3047 14.3881 13.3135C14.3886 13.3224 14.3909 13.3311 14.395 13.339C14.695 13.9115 15.0383 14.4565 15.4158 14.974C15.4237 14.9846 15.4346 14.9925 15.4472 14.9967C15.4597 15.0009 15.4732 15.0011 15.4858 14.9973C17.2811 14.457 18.9722 13.6171 20.4875 12.5131C20.4949 12.508 20.5011 12.5013 20.5057 12.4935C20.5103 12.4858 20.5132 12.4771 20.5142 12.4681C20.9308 8.22315 19.8158 4.53482 17.5567 1.26648C17.5511 1.25586 17.542 1.24758 17.5308 1.24315ZM7.28334 10.2315C6.29834 10.2315 5.48584 9.34065 5.48584 8.24815C5.48584 7.15482 6.28251 6.26481 7.28334 6.26481C8.29168 6.26481 9.09668 7.16232 9.08084 8.24815C9.08084 9.34148 8.28418 10.2315 7.28334 10.2315ZM13.9292 10.2315C12.9433 10.2315 12.1317 9.34065 12.1317 8.24815C12.1317 7.15482 12.9275 6.26481 13.9292 6.26481C14.9375 6.26481 15.7425 7.16232 15.7267 8.24815C15.7267 9.34148 14.9383 10.2315 13.9292 10.2315Z" fill="#9AA4BF"/>
</svg>
