<svg width="11" height="11" viewBox="0 0 11 11" fill="none" xmlns="http://www.w3.org/2000/svg">
<path d="M0.718387 0.468387C0.788056 0.398542 0.870819 0.343128 0.961937 0.305318C1.05305 0.267508 1.15074 0.248047 1.24939 0.248047C1.34804 0.248047 1.44572 0.267508 1.53684 0.305318C1.62796 0.343128 1.71072 0.398542 1.78039 0.468387L5.74939 4.43889L9.71839 0.468387C9.78812 0.398655 9.8709 0.343341 9.96201 0.305602C10.0531 0.267863 10.1508 0.24844 10.2494 0.24844C10.348 0.24844 10.4457 0.267863 10.5368 0.305602C10.6279 0.343341 10.7107 0.398655 10.7804 0.468387C10.8501 0.538119 10.9054 0.620903 10.9432 0.712012C10.9809 0.803121 11.0003 0.900771 11.0003 0.999387C11.0003 1.098 10.9809 1.19565 10.9432 1.28676C10.9054 1.37787 10.8501 1.46066 10.7804 1.53039L6.80989 5.49939L10.7804 9.46839C10.8501 9.53812 10.9054 9.6209 10.9432 9.71201C10.9809 9.80312 11.0003 9.90077 11.0003 9.99939C11.0003 10.098 10.9809 10.1957 10.9432 10.2868C10.9054 10.3779 10.8501 10.4607 10.7804 10.5304C10.7107 10.6001 10.6279 10.6554 10.5368 10.6932C10.4457 10.7309 10.348 10.7503 10.2494 10.7503C10.1508 10.7503 10.0531 10.7309 9.96201 10.6932C9.8709 10.6554 9.78812 10.6001 9.71839 10.5304L5.74939 6.55989L1.78039 10.5304C1.71066 10.6001 1.62787 10.6554 1.53676 10.6932C1.44565 10.7309 1.348 10.7503 1.24939 10.7503C1.15077 10.7503 1.05312 10.7309 0.962012 10.6932C0.870903 10.6554 0.788119 10.6001 0.718387 10.5304C0.648655 10.4607 0.593341 10.3779 0.555602 10.2868C0.517863 10.1957 0.49844 10.098 0.49844 9.99939C0.49844 9.90077 0.517863 9.80312 0.555602 9.71201C0.593341 9.6209 0.648655 9.53812 0.718387 9.46839L4.68889 5.49939L0.718387 1.53039C0.648542 1.46072 0.593128 1.37796 0.555318 1.28684C0.517508 1.19572 0.498047 1.09804 0.498047 0.999387C0.498047 0.900736 0.517508 0.803054 0.555318 0.711937C0.593128 0.620819 0.648542 0.538056 0.718387 0.468387Z" fill="#9AA4BF"/>
</svg>
