<svg width="58" height="50" viewBox="0 0 58 50" fill="none" xmlns="http://www.w3.org/2000/svg">
<path d="M0.0458984 8.0322C0.373853 7.56793 0.842077 7.45729 1.3834 7.45927C3.98333 7.47112 6.58523 7.45927 9.18516 7.46915C9.61387 7.47112 9.97739 7.3921 10.3409 7.12934C11.3346 6.40823 12.4864 6.26401 13.6797 6.3134C13.9306 6.32328 14.2329 6.3786 14.2665 5.97162C14.3001 5.57649 14.2349 5.31966 13.739 5.33546C12.8737 5.36312 12.0044 5.34929 11.1391 5.33942C10.4081 5.33151 10.1019 5.03319 10.0959 4.31011C10.0861 3.23537 10.0861 2.16063 10.0959 1.08786C10.1038 0.362803 10.3982 0.0605315 11.1154 0.00916515C11.303 -0.00466426 11.4927 0.00126245 11.6804 0.00126245C23.2516 0.00126245 34.8249 0.00323817 46.3962 0.0052138C46.6411 0.0052138 46.8901 -0.00466409 47.1291 0.0328729C47.5618 0.10202 47.8581 0.345022 47.9095 0.803369C48.0458 2.02431 48.026 3.25117 47.9352 4.47014C47.8878 5.11222 47.5776 5.32954 46.9039 5.33744C46.0563 5.34732 45.2068 5.34732 44.3593 5.33942C44.0274 5.33546 43.8278 5.41251 43.8219 5.80566C43.816 6.20869 43.9898 6.34896 44.3652 6.32328C45.7086 6.23438 46.9493 6.51492 48.0438 7.3348C48.273 7.50668 48.5476 7.46717 48.8084 7.46717C51.4083 7.46914 54.0102 7.46717 56.6102 7.46915C57.7106 7.46915 57.9496 7.70425 57.9516 8.78887C57.9536 10.7862 57.9575 12.7836 57.9496 14.7829C57.9319 19.3308 55.0139 23.454 50.7129 24.9238C50.0669 25.1451 49.8772 25.4494 49.9009 26.0954C49.9483 27.3558 49.9148 28.6202 49.9148 29.8827C49.9148 30.0526 49.9187 30.2225 49.9029 30.3904C49.814 31.2597 49.2035 31.5639 48.4725 31.0799C47.0758 30.1533 45.679 29.2228 44.3079 28.2567C43.8772 27.9545 43.569 27.9762 43.1522 28.2686C41.8245 29.1991 40.4732 30.0921 39.1278 30.9969C38.7959 31.2202 38.4561 31.4454 38.0353 31.2024C37.6342 30.9712 37.5848 30.584 37.5868 30.1731C37.5908 29.3631 37.5809 28.5531 37.5888 27.7411C37.5927 27.3973 37.4782 27.346 37.1917 27.5178C36.194 28.1244 35.1904 28.723 34.1868 29.3216C33.9497 29.4638 33.8608 29.6673 33.8608 29.934C33.8628 30.8962 33.8687 31.8563 33.8568 32.8165C33.8509 33.2057 34.0129 33.3499 34.3982 33.3459C35.6033 33.3341 36.8104 33.342 38.0175 33.344C39.0606 33.3459 39.2997 33.589 39.3036 34.6538C39.3056 35.2564 39.3155 35.8609 39.3017 36.4635C39.2938 36.825 39.4439 36.9772 39.8055 36.9653C40.2381 36.9515 40.6728 36.9614 41.1054 36.9633C42.7393 36.9752 43.8239 38.0559 43.8357 39.7016C43.8456 41.1339 43.8575 42.5662 43.8278 43.9985C43.818 44.526 44.0076 44.6742 44.5173 44.6762C46.7755 44.6861 48.0102 45.9406 48.0122 48.1829C48.0142 49.9729 47.9925 49.9946 46.2223 49.9946C34.6886 49.9966 23.1548 49.9966 11.6191 49.9985C11.3742 49.9985 11.1272 50.0084 10.8862 49.9768C10.4673 49.9215 10.1671 49.6706 10.1354 49.2518C10.0801 48.5405 10.0169 47.8174 10.1888 47.1141C10.5503 45.6284 11.789 44.69 13.3834 44.6643C14.2783 44.6505 14.2783 44.6505 14.2783 43.7654C14.2783 42.4457 14.2764 41.126 14.2783 39.8082C14.2803 38.0717 15.359 36.9475 17.0995 36.8744C17.4947 36.8586 17.8918 36.8566 18.2869 36.8705C18.6781 36.8843 18.8262 36.7085 18.8183 36.3272C18.8045 35.6871 18.8104 35.045 18.8164 34.4049C18.8262 33.5455 19.1226 33.2412 19.9721 33.2353C21.197 33.2274 22.4219 33.2215 23.6468 33.2393C24.0794 33.2452 24.2592 33.101 24.2474 32.6525C24.2256 31.7299 24.2355 30.8053 24.2414 29.8827C24.2434 29.5942 24.1644 29.3828 23.8957 29.2307C22.8783 28.6558 21.8667 28.071 20.8631 27.4764C20.47 27.2432 20.4206 27.4309 20.4245 27.7687C20.4304 28.5985 20.4225 29.4263 20.4265 30.2561C20.4285 30.6334 20.3534 30.9752 19.9899 31.1708C19.6185 31.3703 19.3004 31.2123 18.9922 31.0029C17.6033 30.0644 16.2006 29.1418 14.8276 28.1797C14.4403 27.909 14.1815 27.9051 13.7904 28.1817C12.4667 29.1181 11.1114 30.0052 9.76797 30.912C9.41434 31.151 9.04489 31.3624 8.61223 31.155C8.15586 30.9377 8.16969 30.501 8.16969 30.0783C8.17166 28.6084 8.16376 27.1385 8.17364 25.6687C8.17562 25.3446 8.08869 25.157 7.75283 25.0444C3.39657 23.5844 0.83615 20.5972 0.120972 16.0473L0.0458984 8.0322ZM29.0462 5.34139V5.34337C24.9013 5.34337 20.7564 5.35324 16.6135 5.33151C16.0386 5.32756 15.8746 5.50142 15.8786 6.0704C15.9003 9.82014 15.8746 13.5679 15.8944 17.3177C15.9142 20.8086 17.465 23.454 20.4245 25.2735C21.9813 26.2297 23.5559 27.1583 25.1364 28.075C25.6501 28.3733 25.8792 28.7546 25.8615 29.3572C25.8279 30.4497 25.8654 31.5422 25.8457 32.6347C25.8377 33.0575 25.9583 33.2491 26.4186 33.2432C28.1334 33.2254 29.8463 33.2254 31.5611 33.2432C32.0017 33.2472 32.1598 33.0931 32.1519 32.6505C32.1301 31.5402 32.1677 30.4279 32.1361 29.3157C32.1203 28.7329 32.3474 28.3713 32.8453 28.0868C34.4159 27.1919 35.9846 26.291 37.5276 25.3486C40.5266 23.5132 42.0952 20.8402 42.1071 17.3019C42.1189 13.5719 42.109 9.84188 42.109 6.11189C42.109 5.34337 42.1051 5.34139 41.3148 5.33942C37.2213 5.33942 33.1337 5.34139 29.0462 5.34139ZM28.902 48.3746C28.902 48.3765 28.902 48.3785 28.902 48.3785C33.7442 48.3785 38.5885 48.3785 43.4307 48.3785C44.1657 48.3785 44.9006 48.3647 45.6355 48.3825C46.0603 48.3923 46.1966 48.2066 46.1808 47.8016C46.1472 46.9146 45.5368 46.3654 44.5055 46.3654C40.3586 46.3614 36.2138 46.3653 32.0669 46.3634C31.2115 46.3634 30.7235 46.0354 30.7314 45.4803C30.7393 44.9133 31.1423 44.6545 32.0274 44.6545C35.137 44.6545 38.2467 44.6564 41.3563 44.6545C42.0992 44.6545 42.1051 44.6485 42.1051 43.8899C42.1071 42.5148 42.109 41.1378 42.1031 39.7628C42.0992 38.9034 41.7653 38.5754 40.896 38.5715C39.2562 38.5656 37.6165 38.5695 35.9767 38.5695C29.7199 38.5695 23.463 38.5695 17.2062 38.5735C16.2224 38.5735 15.8865 38.9153 15.8825 39.9031C15.8766 41.2781 15.8944 42.6551 15.8746 44.0302C15.8687 44.4885 16.011 44.6801 16.4891 44.6584C17.147 44.6307 17.8088 44.6426 18.4667 44.6624C18.9191 44.6762 19.2214 44.9192 19.2648 45.3835C19.3103 45.8596 19.0831 46.1895 18.6109 46.2982C18.3758 46.3535 18.1269 46.3614 17.8819 46.3634C16.3369 46.3693 14.792 46.3594 13.2471 46.3713C12.4845 46.3772 12.0083 46.7269 11.793 47.3927C11.5401 48.1731 11.6863 48.3746 12.5022 48.3746C17.9708 48.3746 23.4374 48.3746 28.902 48.3746ZM48.3046 19.882H48.3026C48.3026 17.2248 48.3046 14.5676 48.3007 11.9104C48.3007 11.3058 48.2691 10.6993 48.0577 10.1283C47.542 8.73355 46.3883 8.02232 44.6675 8.0243C43.8101 8.0243 43.8081 8.02627 43.8081 8.86197C43.8061 11.6318 43.8278 14.4016 43.8002 17.1734C43.7686 20.2495 42.7966 23.0174 40.4633 25.0503C39.3372 26.0322 39.0389 27.0437 39.191 28.3713C39.2068 28.5116 39.114 28.7091 39.2859 28.7783C39.434 28.8376 39.5545 28.6775 39.6751 28.5946C40.7814 27.8418 41.8917 27.0951 42.9842 26.3246C43.4999 25.961 43.9543 25.9472 44.4798 26.3226C45.5368 27.0773 46.6234 27.7944 47.702 28.5195C47.8502 28.6183 47.9984 28.8237 48.194 28.7151C48.3836 28.6084 48.3007 28.3713 48.3007 28.1915C48.3066 25.4217 48.3046 22.6519 48.3046 19.882ZM9.76205 19.6133C9.76205 22.478 9.76007 25.3407 9.766 28.2054C9.766 28.3832 9.68302 28.6183 9.89441 28.7151C10.0663 28.7921 10.2026 28.6143 10.3389 28.5234C11.2912 27.8814 12.2395 27.2314 13.1917 26.5873C14.2645 25.8623 14.2961 25.8682 15.3807 26.6209C16.3705 27.3084 17.3662 27.99 18.3659 28.6637C18.4864 28.7447 18.7472 29.0134 18.7709 28.6538C18.8223 27.8873 18.7808 27.1128 18.7551 26.3404C18.7492 26.1685 18.5655 26.0697 18.4331 25.963C15.5684 23.6594 14.2131 20.6387 14.1835 16.9956C14.1677 14.9607 14.1796 12.9258 14.1796 10.8909C14.1796 10.1185 14.1776 9.34599 14.1796 8.57352C14.1796 8.28508 14.1321 8.06974 13.7686 8.0243C11.1075 7.69634 9.68697 9.57912 9.74229 11.4737C9.82132 14.1863 9.76205 16.9008 9.76205 19.6133ZM28.9948 3.7115C28.9948 3.71347 28.9948 3.71347 28.9948 3.71545C34.4021 3.71545 39.8094 3.71545 45.2187 3.71545C46.1946 3.71545 46.1946 3.71545 46.1946 2.71973C46.1946 1.72204 46.1946 1.72204 45.2207 1.72204C34.4614 1.72401 23.7021 1.72401 12.9428 1.72599C11.7041 1.72599 11.7989 1.57584 11.7969 2.88568C11.795 3.70754 11.7989 3.70952 12.601 3.70952C18.0676 3.7115 23.5302 3.7115 28.9948 3.7115ZM49.9128 18.1415C49.9128 19.7062 49.9108 21.2709 49.9128 22.8336C49.9148 23.4698 49.9503 23.5014 50.547 23.2465C53.6072 21.9466 55.5078 19.6548 56.0886 16.395C56.4897 14.1448 56.1913 11.8452 56.2387 9.56727C56.2467 9.18992 55.972 9.16819 55.6915 9.16819C53.789 9.16819 51.8845 9.17214 49.9819 9.16621C49.6382 9.16424 49.4821 9.24524 49.6322 9.62653C49.7409 9.9051 49.812 10.2034 49.8515 10.4998C49.9068 10.9364 50.1103 11.1043 50.5588 11.0905C51.4617 11.0628 52.3685 11.0687 53.2713 11.0925C54.0359 11.1122 54.3323 11.4224 54.3402 12.1711C54.35 12.9812 54.3481 13.7912 54.3402 14.6031C54.3342 15.1939 54.028 15.5752 53.5637 15.6048C53.0619 15.6384 52.6925 15.2808 52.647 14.6703C52.6154 14.2574 52.6135 13.8406 52.6352 13.4276C52.6589 12.9752 52.5088 12.7638 52.0247 12.7935C51.5367 12.8231 51.0428 12.8251 50.5549 12.7935C50.055 12.7599 49.897 12.9594 49.9049 13.4474C49.9286 15.0141 49.9148 16.5788 49.9128 18.1415ZM1.74692 12.6631C1.74889 12.6631 1.74889 12.6631 1.75087 12.6631C1.75087 13.4553 1.71333 14.2475 1.75679 15.0378C1.96424 18.8014 3.76206 21.5119 7.18583 23.1142C8.0393 23.5132 8.05708 23.4856 8.05708 22.5175C8.05708 22.3852 8.0393 22.2508 8.05905 22.1224C8.14203 21.5751 7.89112 21.2946 7.40907 21.0338C5.46308 19.9788 4.22633 18.3489 3.77984 16.1718C3.48547 14.7395 3.65142 13.2775 3.66723 11.8313C3.67316 11.3295 4.06433 11.0826 4.56021 11.0747C5.29515 11.0648 6.03008 11.0707 6.76502 11.0687C7.93064 11.0687 7.92866 11.0687 8.20723 9.97029C8.23488 9.86163 8.25859 9.74705 8.30601 9.64629C8.48777 9.26894 8.35935 9.14843 7.96225 9.15041C6.0775 9.16226 4.19275 9.16226 2.30997 9.15238C1.89904 9.15041 1.73506 9.31241 1.74296 9.72334C1.75679 10.7033 1.74692 11.6832 1.74692 12.6631ZM28.9948 34.9541C26.5095 34.9541 24.0241 34.9521 21.5388 34.9561C20.2941 34.9581 20.4285 34.8435 20.4225 36.0822C20.4186 36.8665 20.4245 36.8705 21.2029 36.8705C26.2684 36.8724 31.332 36.8744 36.3975 36.8705C37.7093 36.8705 37.5374 36.993 37.5829 35.6831C37.6026 35.1122 37.4189 34.9363 36.846 34.9423C34.2282 34.9679 31.6125 34.9521 28.9948 34.9541ZM8.0551 16.1639C8.0551 15.2215 8.04522 14.2811 8.05905 13.3387C8.06498 12.9653 7.94644 12.7777 7.54341 12.7895C6.94085 12.8073 6.33828 12.8014 5.73571 12.7915C5.39788 12.7856 5.26156 12.9357 5.26946 13.2696C5.28132 13.7773 5.25168 14.287 5.27737 14.7948C5.36627 16.5669 6.08738 18.023 7.496 19.1194C7.62639 19.2202 7.76468 19.3921 7.93459 19.3269C8.13018 19.2518 8.04918 19.0305 8.05115 18.8725C8.06103 17.9696 8.05708 17.0668 8.0551 16.1639Z" fill="#E28058"/>
<path d="M30.3206 11.2334L29.0819 12.3615L28.1257 11.2334H22.7184L20.6914 20.3292H26.889L27.9558 19.2979L28.9515 20.3292H35.1491L37.1761 11.2334H30.3206V11.2334ZM34.2442 14.6018H31.1129L30.3285 17.0832H33.693L33.3651 18.559H29.4711L28.3924 17.4171L29.1056 14.995C29.1432 14.8804 29.1866 14.7678 29.234 14.6611L26.0552 18.5669H23.0306L24.2831 13.2624H26.0651L25.0911 16.9331L28.2798 13.2624H30.372H34.5445L34.2442 14.6018Z" fill="#E28058"/>
</svg>
