<svg width="36" height="37" viewBox="0 0 36 37" fill="none" xmlns="http://www.w3.org/2000/svg">
<path d="M18.2214 16.6367C18.1951 16.6031 18.1615 16.5759 18.1231 16.5572C18.0847 16.5385 18.0426 16.5288 17.9999 16.5288C17.9572 16.5288 17.9151 16.5385 17.8767 16.5572C17.8383 16.5759 17.8047 16.6031 17.7784 16.6367L13.8409 21.6184C13.8085 21.6598 13.7883 21.7096 13.7828 21.7619C13.7773 21.8143 13.7866 21.8671 13.8097 21.9144C13.8328 21.9618 13.8688 22.0016 13.9134 22.0294C13.9581 22.0573 14.0098 22.072 14.0624 22.0719H16.6605V30.5938C16.6605 30.7484 16.787 30.875 16.9417 30.875H19.0511C19.2058 30.875 19.3323 30.7484 19.3323 30.5938V22.0754H21.9374C22.173 22.0754 22.303 21.8047 22.1589 21.6219L18.2214 16.6367Z" fill="#FFFFFF"/>
<path d="M28.5258 13.3918C26.9156 9.14492 22.8129 6.125 18.007 6.125C13.2012 6.125 9.09844 9.14141 7.48828 13.3883C4.47539 14.1793 2.25 16.925 2.25 20.1875C2.25 24.0723 5.39648 27.2188 9.27773 27.2188H10.6875C10.8422 27.2188 10.9688 27.0922 10.9688 26.9375V24.8281C10.9688 24.6734 10.8422 24.5469 10.6875 24.5469H9.27773C8.09297 24.5469 6.97852 24.0758 6.14883 23.2215C5.32266 22.3707 4.8832 21.2246 4.92188 20.0363C4.95352 19.1082 5.26992 18.2363 5.84297 17.5016C6.43008 16.7527 7.25273 16.2078 8.1668 15.9652L9.49922 15.6172L9.98789 14.3305C10.2902 13.5289 10.7121 12.7801 11.243 12.1016C11.767 11.4291 12.3878 10.8379 13.0852 10.3473C14.5301 9.33125 16.2316 8.79336 18.007 8.79336C19.7824 8.79336 21.484 9.33125 22.9289 10.3473C23.6285 10.8395 24.2473 11.4301 24.7711 12.1016C25.302 12.7801 25.7238 13.5324 26.0262 14.3305L26.5113 15.6137L27.8402 15.9652C29.7457 16.4785 31.0781 18.2117 31.0781 20.1875C31.0781 21.3512 30.6246 22.448 29.802 23.2707C29.3985 23.6765 28.9186 23.9982 28.3899 24.2173C27.8613 24.4364 27.2945 24.5484 26.7223 24.5469H25.3125C25.1578 24.5469 25.0312 24.6734 25.0312 24.8281V26.9375C25.0312 27.0922 25.1578 27.2188 25.3125 27.2188H26.7223C30.6035 27.2188 33.75 24.0723 33.75 20.1875C33.75 16.9285 31.5316 14.1863 28.5258 13.3918Z" fill="#FFFFFF"/>
</svg>
