<svg width="17" height="17" viewBox="0 0 17 17" fill="none" xmlns="http://www.w3.org/2000/svg">
<path d="M6.58661 2.68C6.28753 3.42934 6.06343 4.20647 5.91761 5H11.2816C11.1355 4.20643 10.9111 3.42929 10.6116 2.68C10.3106 1.947 9.96361 1.386 9.60361 1.017C9.24562 0.649 8.90662 0.5 8.59962 0.5C8.29261 0.5 7.95361 0.649 7.59561 1.017C7.23561 1.387 6.88861 1.947 6.58661 2.68ZM6.49061 0.781C6.17661 1.207 5.90061 1.722 5.66261 2.299C5.34261 3.079 5.08261 3.993 4.90061 5H1.40361C1.90312 3.97572 2.61517 3.06964 3.49233 2.34215C4.36949 1.61466 5.39162 1.08246 6.49061 0.781ZM10.7096 0.781C11.0226 1.207 11.2996 1.722 11.5366 2.299C11.8566 3.079 12.1166 3.993 12.2986 5H15.7956C15.2961 3.97572 14.5841 3.06964 13.7069 2.34215C12.8297 1.61466 11.8076 1.08246 10.7086 0.781H10.7096ZM16.2016 6H12.4496C12.5476 6.795 12.5996 7.634 12.5996 8.5C12.5996 9.366 12.5476 10.205 12.4496 11H16.2016C16.4662 10.1931 16.6006 9.34918 16.5996 8.5C16.6003 7.65084 16.466 6.80697 16.2016 6ZM15.7956 12H12.2986C12.1166 13.007 11.8576 13.922 11.5366 14.7C11.3231 15.2378 11.0454 15.7478 10.7096 16.219C11.8084 15.9174 12.8304 15.3852 13.7073 14.6577C14.5843 13.9302 15.2962 13.0242 15.7956 12ZM8.59962 16.5C8.90662 16.5 9.24562 16.351 9.60361 15.983C9.96361 15.613 10.3106 15.053 10.6116 14.32C10.9111 13.5707 11.1355 12.7936 11.2816 12H5.91761C6.08561 12.873 6.31461 13.657 6.58761 14.32C6.88861 15.053 7.23561 15.614 7.59561 15.983C7.95361 16.351 8.29261 16.5 8.59962 16.5ZM6.48961 16.219C5.39099 15.9173 4.36925 15.385 3.49245 14.6575C2.61564 13.93 1.9039 13.0241 1.40461 12H4.90161C5.08361 13.007 5.34261 13.922 5.66361 14.7C5.90061 15.278 6.17761 15.793 6.49161 16.219H6.48961ZM0.998615 11H4.74961C4.64877 10.1705 4.59868 9.33561 4.59961 8.5C4.59961 7.634 4.65161 6.795 4.74961 6H0.997615C0.732989 6.8069 0.598638 7.65082 0.599615 8.5C0.599615 9.373 0.739615 10.213 0.997615 11H0.998615ZM5.59961 8.5C5.59961 7.625 5.65561 6.785 5.75761 6H11.4416C11.5436 6.785 11.5996 7.625 11.5996 8.5C11.5996 9.375 11.5436 10.214 11.4416 11H5.75761C5.65125 10.1709 5.59847 9.33586 5.59961 8.5Z" fill="#9AA4BF"/>
</svg>
