<svg width="19" height="13" viewBox="0 0 19 13" fill="none" xmlns="http://www.w3.org/2000/svg">
<path d="M17.9844 2.13086C17.8848 1.75984 17.6894 1.42149 17.418 1.14968C17.1465 0.877866 16.8084 0.68212 16.4375 0.582031C15.0723 0.214844 9.59961 0.214844 9.59961 0.214844C9.59961 0.214844 4.12695 0.214844 2.76172 0.580078C2.39066 0.679842 2.05239 0.875479 1.78087 1.14734C1.50935 1.41921 1.31414 1.75773 1.21484 2.12891C0.849609 3.49609 0.849609 6.34766 0.849609 6.34766C0.849609 6.34766 0.849609 9.19922 1.21484 10.5645C1.41602 11.3184 2.00977 11.9121 2.76172 12.1133C4.12695 12.4805 9.59961 12.4805 9.59961 12.4805C9.59961 12.4805 15.0723 12.4805 16.4375 12.1133C17.1914 11.9121 17.7832 11.3184 17.9844 10.5645C18.3496 9.19922 18.3496 6.34766 18.3496 6.34766C18.3496 6.34766 18.3496 3.49609 17.9844 2.13086ZM7.86133 8.96484V3.73047L12.3926 6.32812L7.86133 8.96484Z" fill="#9AA4BF"/>
</svg>
