<svg width="15" height="16" viewBox="0 0 15 16" fill="none" xmlns="http://www.w3.org/2000/svg">
<path d="M5.625 2.375C4.7962 2.375 4.00134 2.70424 3.41529 3.29029C2.82924 3.87634 2.5 4.6712 2.5 5.5C2.5 6.3288 2.82924 7.12366 3.41529 7.70971C4.00134 8.29576 4.7962 8.625 5.625 8.625C6.4538 8.625 7.24866 8.29576 7.83471 7.70971C8.42076 7.12366 8.75 6.3288 8.75 5.5C8.75 4.6712 8.42076 3.87634 7.83471 3.29029C7.24866 2.70424 6.4538 2.375 5.625 2.375ZM3.75 5.5C3.75 5.00272 3.94754 4.52581 4.29917 4.17417C4.65081 3.82254 5.12772 3.625 5.625 3.625C6.12228 3.625 6.59919 3.82254 6.95083 4.17417C7.30246 4.52581 7.5 5.00272 7.5 5.5C7.5 5.99728 7.30246 6.47419 6.95083 6.82583C6.59919 7.17746 6.12228 7.375 5.625 7.375C5.12772 7.375 4.65081 7.17746 4.29917 6.82583C3.94754 6.47419 3.75 5.99728 3.75 5.5ZM10.5675 5.63625C10.3917 5.54669 10.1973 5.5 10 5.5V4.25C10.3947 4.25003 10.7838 4.34351 11.1354 4.5228C11.4871 4.70208 11.7912 4.96208 12.0231 5.28151C12.2549 5.60095 12.4078 5.97073 12.4693 6.36062C12.5308 6.7505 12.4991 7.1494 12.3768 7.52468C12.2545 7.89995 12.045 8.24093 11.7656 8.51972C11.4862 8.79851 11.1448 9.00718 10.7693 9.12865C10.3937 9.25013 9.99474 9.28096 9.60499 9.21862C9.21524 9.15629 8.84579 9.00255 8.52687 8.77L9.26313 7.76C9.40251 7.86145 9.56138 7.93296 9.72974 7.97006C9.8981 8.00715 10.0723 8.00901 10.2414 7.97553C10.4105 7.94206 10.5709 7.87396 10.7124 7.77552C10.854 7.67708 10.9736 7.55043 11.0638 7.40353C11.1541 7.25662 11.2129 7.09265 11.2367 6.9219C11.2605 6.75115 11.2487 6.57733 11.2021 6.41135C11.1555 6.24538 11.0751 6.09084 10.9659 5.95745C10.8566 5.82406 10.721 5.7147 10.5675 5.63625ZM12.4987 13.625C12.4986 12.9623 12.2353 12.3269 11.7667 11.8583C11.2981 11.3897 10.6627 11.1264 10 11.1263V9.875C10.9945 9.87517 11.9482 10.2703 12.6515 10.9735C13.3547 11.6768 13.7498 12.6305 13.75 13.625H12.4987ZM10 13.625H8.75C8.75 12.7962 8.42076 12.0013 7.83471 11.4153C7.24866 10.8292 6.4538 10.5 5.625 10.5C4.7962 10.5 4.00134 10.8292 3.41529 11.4153C2.82924 12.0013 2.5 12.7962 2.5 13.625H1.25C1.25 12.4647 1.71094 11.3519 2.53141 10.5314C3.35188 9.71094 4.46468 9.25 5.625 9.25C6.78532 9.25 7.89812 9.71094 8.71859 10.5314C9.53906 11.3519 10 12.4647 10 13.625Z" fill="#9AA4BF"/>
</svg>
