<svg width="20" height="20" viewBox="0 0 20 20" fill="none" xmlns="http://www.w3.org/2000/svg">
<g clip-path="url(#clip0_315_1779)">
<path d="M16.9308 3.74333C15.6558 3.16833 14.2891 2.74333 12.86 2.50167C12.8472 2.49922 12.8341 2.5008 12.8223 2.50617C12.8105 2.51155 12.8006 2.52046 12.7941 2.53167C12.6191 2.83917 12.4241 3.24 12.2875 3.55667C10.7717 3.3302 9.23073 3.3302 7.71497 3.55667C7.56275 3.20572 7.3911 2.86352 7.20081 2.53167C7.19436 2.52032 7.1846 2.51121 7.17284 2.50555C7.16107 2.49989 7.14787 2.49795 7.13497 2.5C5.70664 2.74166 4.33997 3.16667 3.06414 3.7425C3.05316 3.7471 3.04386 3.75495 3.03747 3.765C0.44414 7.5775 -0.266693 11.2958 0.0824733 14.9675C0.0834449 14.9765 0.0862362 14.9852 0.0906774 14.9931C0.0951185 15.001 0.101117 15.0078 0.108307 15.0133C1.62197 16.1154 3.31025 16.9548 5.10247 17.4967C5.11497 17.5005 5.12833 17.5005 5.14082 17.4966C5.15331 17.4928 5.16434 17.4852 5.17247 17.475C5.55814 16.9592 5.89989 16.412 6.19414 15.8392C6.19822 15.8313 6.20058 15.8227 6.20104 15.8139C6.20151 15.8051 6.20007 15.7963 6.19683 15.788C6.19359 15.7798 6.18862 15.7724 6.18226 15.7663C6.17591 15.7601 6.1683 15.7554 6.15997 15.7525C5.62164 15.5498 5.10004 15.3051 4.59997 15.0208C4.59099 15.0157 4.58342 15.0084 4.57794 14.9996C4.57246 14.9909 4.56924 14.9809 4.56858 14.9705C4.56792 14.9602 4.56984 14.9499 4.57415 14.9405C4.57847 14.9311 4.58505 14.9229 4.59331 14.9167C4.69831 14.8392 4.80331 14.7583 4.90331 14.6775C4.91231 14.6702 4.92315 14.6656 4.93463 14.6641C4.9461 14.6627 4.95776 14.6644 4.96831 14.6692C8.24081 16.1392 11.785 16.1392 15.0191 14.6692C15.0297 14.6641 15.0415 14.6621 15.0531 14.6635C15.0648 14.6648 15.0758 14.6694 15.085 14.6767C15.185 14.7583 15.2891 14.8392 15.395 14.9167C15.4033 14.9228 15.41 14.9308 15.4145 14.9402C15.4189 14.9495 15.421 14.9598 15.4205 14.9701C15.42 14.9804 15.4169 14.9904 15.4116 14.9993C15.4063 15.0082 15.3989 15.0156 15.39 15.0208C14.8916 15.3075 14.3733 15.55 13.8291 15.7517C13.8208 15.7547 13.8132 15.7595 13.8068 15.7657C13.8004 15.7719 13.7955 15.7794 13.7922 15.7877C13.789 15.796 13.7876 15.8048 13.7881 15.8137C13.7885 15.8226 13.7909 15.8313 13.795 15.8392C14.095 16.4117 14.4383 16.9567 14.8158 17.4742C14.8237 17.4848 14.8346 17.4927 14.8471 17.4969C14.8596 17.5011 14.8732 17.5013 14.8858 17.4975C16.6811 16.9572 18.3721 16.1173 19.8875 15.0133C19.8949 15.0082 19.9011 15.0015 19.9057 14.9937C19.9103 14.986 19.9132 14.9773 19.9141 14.9683C20.3308 10.7233 19.2158 7.035 16.9566 3.76667C16.9511 3.75604 16.9419 3.74776 16.9308 3.74333ZM6.68331 12.7317C5.69831 12.7317 4.88581 11.8408 4.88581 10.7483C4.88581 9.655 5.68247 8.765 6.68331 8.765C7.69164 8.765 8.49664 9.6625 8.48081 10.7483C8.48081 11.8417 7.68414 12.7317 6.68331 12.7317V12.7317ZM13.3291 12.7317C12.3433 12.7317 11.5316 11.8408 11.5316 10.7483C11.5316 9.655 12.3275 8.765 13.3291 8.765C14.3375 8.765 15.1425 9.6625 15.1266 10.7483C15.1266 11.8417 14.3383 12.7317 13.3291 12.7317V12.7317Z" fill="#9AA4BF"/>
</g>
<defs>
<clipPath id="clip0_315_1779">
<rect width="20" height="20" fill="white"/>
</clipPath>
</defs>
</svg>
