<svg width="63" height="50" viewBox="0 0 63 50" fill="none" xmlns="http://www.w3.org/2000/svg">
<path fill-rule="evenodd" clip-rule="evenodd" d="M26.8107 5.19508H35.9775C34.8475 3.29814 33.5693 1.62246 31.943 0.23681C31.5048 -0.136994 30.9999 -0.0424691 30.5831 0.339928C29.0729 1.72558 27.7968 3.30243 26.7785 5.08552C26.7697 5.10173 26.7831 5.1311 26.7958 5.15904L26.7958 5.15906C26.8017 5.17183 26.8074 5.1843 26.8107 5.19508ZM31.3781 7.31124C31.8478 7.31124 32.3175 7.3129 32.7871 7.31455C34.008 7.31886 35.2286 7.32317 36.4481 7.29835C36.9508 7.28761 37.1548 7.4788 37.3289 7.91706C38.5706 11.0321 38.8627 14.2524 38.4503 17.5543C38.0679 20.6135 37.2 23.5159 35.6188 26.1905C35.2343 26.8393 34.7616 27.1314 33.9883 27.1121C32.1686 27.067 30.3469 27.082 28.5273 27.1057C27.8914 27.1143 27.4725 26.8736 27.1438 26.3366C25.4294 23.5287 24.5443 20.4545 24.1791 17.2127C23.8204 14.0161 24.1512 10.9053 25.3435 7.89772C25.5218 7.44658 25.7495 7.28975 26.2393 7.29835C27.4862 7.32178 28.7319 7.31795 29.9772 7.31411H29.9774H29.9775H29.9776H29.9778H29.9779H29.978H29.9782C30.4448 7.31268 30.9115 7.31124 31.3781 7.31124ZM31.3544 11.4768C29.6573 11.466 28.2373 12.8538 28.2136 14.5446C28.19 16.2696 29.5993 17.7133 31.3136 17.7219C33.0043 17.7305 34.433 16.3362 34.4587 14.652C34.4845 12.9333 33.0731 11.4875 31.3544 11.4768ZM35.4899 30.7556C35.3202 33.2777 34.1773 35.4797 32.0978 37.1983C31.5886 37.6194 31.0709 37.6129 30.566 37.1919C28.4779 35.4496 27.3071 33.2368 27.1825 30.5042C27.1395 29.5761 27.5326 29.183 28.45 29.1809C30.3576 29.1744 32.2653 29.1766 34.1709 29.1809C35.1634 29.183 35.52 29.5654 35.4899 30.7556ZM25.1458 31.3484C22.9352 31.7694 21.4293 33.0004 20.4368 34.9382C16.8491 33.8769 13.3817 35.0091 12.5439 37.4689H27.8892C26.379 35.6557 25.423 33.6814 25.1458 31.3484ZM34.8024 37.4474C36.2847 35.6622 37.245 33.7073 37.5221 31.3463C39.7199 31.7566 41.2194 32.979 42.2312 34.9425C45.5009 33.7116 48.1476 34.5451 50.2744 37.4496C45.082 37.4474 40.0056 37.4474 34.8024 37.4474ZM24.0094 24.8219C24.0373 24.9014 24.018 24.9873 23.9664 25.0517C23.8191 25.2273 23.6734 25.4007 23.5291 25.5724L23.5276 25.5741C22.9254 26.2907 22.3475 26.9782 21.7795 27.6727C21.4744 28.0443 21.1114 28.2269 20.643 28.0937C20.1854 27.9627 19.889 27.649 19.8847 27.1549C19.8675 24.2032 20.3122 21.3631 21.8289 18.6863C21.9363 18.4973 22.222 18.5403 22.2671 18.7529C22.3083 18.9378 22.3486 19.1209 22.3885 19.3025L22.3886 19.3028C22.5694 20.1254 22.7432 20.9162 22.9632 21.694C23.189 22.485 23.4633 23.2636 23.7232 24.0012C23.8218 24.2812 23.9184 24.5553 24.0094 24.8219ZM40.8886 18.7722C40.7833 18.5918 40.5126 18.624 40.4546 18.826C40.1931 19.7418 39.9316 20.6585 39.6721 21.5679L39.6715 21.5702L39.6659 21.5898C39.3457 22.7122 39.0287 23.8233 38.7188 24.9078C38.6973 24.983 38.7145 25.0625 38.7639 25.1226C38.9307 25.325 39.0972 25.53 39.2644 25.7359L39.2647 25.7362L39.2648 25.7363L39.2651 25.7367C39.8041 26.4003 40.3511 27.0738 40.9445 27.7049C41.1786 27.9519 41.6684 28.098 42.0208 28.0658C42.5127 28.0185 42.7963 27.5996 42.7812 27.0819L42.7749 26.8694C42.7517 26.0957 42.7286 25.3207 42.6459 24.5512C42.4246 22.4931 41.9133 20.5274 40.8886 18.7722ZM59.0224 6.26489H39.6318H38.9014C38.9695 6.44336 39.0378 6.6106 39.1034 6.77099L39.1034 6.77109C39.2446 7.11649 39.3727 7.43014 39.4578 7.75581C39.5867 8.24562 39.8445 8.36163 40.3322 8.35948C45.6683 8.34291 51.0029 8.34528 56.3386 8.34764L59.0073 8.34874C60.2039 8.34874 60.4875 8.63876 60.4875 9.85255V38.8761V39.5549H2.17408V38.889V9.79884C2.17408 8.63661 2.46625 8.34874 3.63922 8.34659H22.1833H22.9675C23.2339 7.65269 23.4874 6.99102 23.7645 6.26489H23.0598H3.60485C1.34914 6.26489 0.0966797 7.51305 0.0966797 9.76017V46.5283C0.0966797 48.7346 1.36203 50 3.56618 50H59.0696C61.3146 50 62.5692 48.7432 62.5692 46.4918V9.7881C62.5714 7.50446 61.3232 6.26489 59.0224 6.26489ZM25.6851 45.8408C25.1072 45.8408 24.6388 45.3725 24.6388 44.7946C24.6388 44.2167 25.1072 43.7484 25.6851 43.7484C26.263 43.7484 26.7313 44.2167 26.7313 44.7946C26.7313 45.3725 26.263 45.8408 25.6851 45.8408ZM31.8939 45.8389H31.8936H31.8932C31.6862 45.8377 31.4794 45.8365 31.2728 45.8365C31.0678 45.8365 30.8631 45.8378 30.6584 45.8391H30.6582C30.2151 45.8419 29.7723 45.8447 29.3286 45.8344C28.6196 45.8172 28.19 45.3983 28.2029 44.771C28.2158 44.1738 28.6368 43.7699 29.3135 43.7634C30.6519 43.7484 31.9925 43.7484 33.3309 43.7634C34.0398 43.7699 34.4738 44.2017 34.4587 44.8226C34.448 45.4112 34.0183 45.8151 33.3459 45.8323C32.8617 45.8443 32.3774 45.8416 31.8939 45.8389ZM36.9787 45.8408C36.4008 45.8408 35.9324 45.3725 35.9324 44.7946C35.9324 44.2167 36.4008 43.7484 36.9787 43.7484C37.5566 43.7484 38.0249 44.2167 38.0249 44.7946C38.0249 45.3725 37.5566 45.8408 36.9787 45.8408ZM31.9709 15.2232L32.2717 14.2694V14.2672H33.4769L33.5929 13.7516H31.1825L29.9558 15.1631L30.3296 13.7516H29.6443L29.1631 15.7925H30.3275L31.5499 14.2887C31.5305 14.3317 31.5155 14.3725 31.5005 14.4176L31.2255 15.35L31.6401 15.7904H33.2384L33.3308 15.2232H31.9709Z" fill="#E28058"/>
</svg>
