<svg width="20" height="20" viewBox="0 0 20 20" fill="none" xmlns="http://www.w3.org/2000/svg">
<path d="M16.6032 4.32987C16.7056 4.22542 16.8278 4.14244 16.9626 4.08579C17.0975 4.02915 17.2422 3.99997 17.3885 3.99997C17.5347 3.99997 17.6795 4.02915 17.8144 4.08579C17.9492 4.14244 18.0714 4.22542 18.1737 4.32987C18.6027 4.76337 18.6087 5.46387 18.1887 5.90487L9.31924 16.3899C9.21854 16.5005 9.09633 16.5893 8.9601 16.6511C8.82388 16.7128 8.67648 16.7461 8.52695 16.7489C8.37741 16.7517 8.22888 16.724 8.09042 16.6674C7.95197 16.6108 7.82652 16.5266 7.72174 16.4199L2.32474 10.9509C2.11659 10.7386 2 10.4532 2 10.1559C2 9.85858 2.11659 9.57314 2.32474 9.36087C2.42711 9.25642 2.54929 9.17344 2.68412 9.11679C2.81896 9.06015 2.96374 9.03097 3.10999 9.03097C3.25624 9.03097 3.40102 9.06015 3.53586 9.11679C3.67069 9.17344 3.79287 9.25642 3.89524 9.36087L8.47324 14.0004L16.5732 4.36287C16.5826 4.35128 16.5926 4.34026 16.6032 4.32987Z" fill="#9AA4BF"/>
</svg>
