<svg width="50" height="50" viewBox="0 0 50 50" fill="none" xmlns="http://www.w3.org/2000/svg">
<path d="M32.8125 31.25C32.3981 31.25 32.0007 31.4146 31.7076 31.7076C31.4146 32.0007 31.25 32.3981 31.25 32.8125C31.25 33.2269 31.4146 33.6243 31.7076 33.9174C32.0007 34.2104 32.3981 34.375 32.8125 34.375H39.0625C39.4769 34.375 39.8743 34.2104 40.1674 33.9174C40.4604 33.6243 40.625 33.2269 40.625 32.8125C40.625 32.3981 40.4604 32.0007 40.1674 31.7076C39.8743 31.4146 39.4769 31.25 39.0625 31.25H32.8125Z" fill="#E28058"/>
<path d="M3.125 15.625C3.125 13.9674 3.78348 12.3777 4.95558 11.2056C6.12769 10.0335 7.7174 9.375 9.375 9.375H40.625C42.2826 9.375 43.8723 10.0335 45.0444 11.2056C46.2165 12.3777 46.875 13.9674 46.875 15.625V34.375C46.875 36.0326 46.2165 37.6223 45.0444 38.7944C43.8723 39.9665 42.2826 40.625 40.625 40.625H9.375C7.7174 40.625 6.12769 39.9665 4.95558 38.7944C3.78348 37.6223 3.125 36.0326 3.125 34.375V15.625ZM43.75 15.625C43.75 14.7962 43.4208 14.0013 42.8347 13.4153C42.2487 12.8292 41.4538 12.5 40.625 12.5H9.375C8.5462 12.5 7.75134 12.8292 7.16529 13.4153C6.57924 14.0013 6.25 14.7962 6.25 15.625V18.75H43.75V15.625ZM6.25 34.375C6.25 35.2038 6.57924 35.9987 7.16529 36.5847C7.75134 37.1708 8.5462 37.5 9.375 37.5H40.625C41.4538 37.5 42.2487 37.1708 42.8347 36.5847C43.4208 35.9987 43.75 35.2038 43.75 34.375V21.875H6.25V34.375Z" fill="#E28058"/>
</svg>
