<svg width="20" height="20" viewBox="0 0 20 20" fill="none" xmlns="http://www.w3.org/2000/svg">
<g clip-path="url(#clip0_1143_1866)">
<path d="M2.34467 12.8889L1.28911 17.4444C1.2527 17.611 1.25395 17.7835 1.29276 17.9495C1.33158 18.1155 1.40699 18.2707 1.51348 18.4038C1.61997 18.537 1.75485 18.6446 1.90826 18.7189C2.06168 18.7932 2.22976 18.8323 2.40022 18.8333C2.47965 18.8414 2.55968 18.8414 2.63911 18.8333L7.22244 17.7778L16.0224 9.01111L11.1113 4.11111L2.34467 12.8889Z" fill="#9AA4BF"/>
<path d="M18.7886 4.62222L15.5109 1.34444C15.2954 1.13004 15.0037 1.00967 14.6997 1.00967C14.3957 1.00967 14.1041 1.13004 13.8886 1.34444L12.0664 3.16667L16.972 8.07222L18.7942 6.25C18.9008 6.14282 18.9853 6.01567 19.0427 5.87581C19.1002 5.73596 19.1295 5.58615 19.129 5.43496C19.1284 5.28377 19.0981 5.13416 19.0397 4.9947C18.9813 4.85525 18.896 4.72867 18.7886 4.62222Z" fill="#9AA4BF"/>
</g>
<defs>
<clipPath id="clip0_1143_1866">
<rect width="20" height="20" fill="white"/>
</clipPath>
</defs>
</svg>
