<svg width="17" height="18" viewBox="0 0 17 18" fill="none" xmlns="http://www.w3.org/2000/svg">
<g clip-path="url(#clip0_1768_76061)">
<path d="M13.6 0.5H3.4C1.52235 0.5 0 2.02235 0 3.9V14.1C0 15.9777 1.52235 17.5 3.4 17.5H13.6C15.4777 17.5 17 15.9777 17 14.1V3.9C17 2.02235 15.4777 0.5 13.6 0.5ZM15.3 14.1C15.3 15.0375 14.5375 15.8 13.6 15.8H3.4C2.46245 15.8 1.7 15.0375 1.7 14.1V3.9C1.7 2.96245 2.46245 2.2 3.4 2.2H13.6C14.5375 2.2 15.3 2.96245 15.3 3.9V14.1Z" fill="#40D04F"/>
<path fill-rule="evenodd" clip-rule="evenodd" d="M9.56211 8.15039H7.43711C7.09201 8.15039 6.79961 7.76109 6.79961 7.30039C6.79961 6.83969 7.09201 6.45039 7.43711 6.45039H10.6246C11.0947 6.45039 11.4746 6.06959 11.4746 5.60039C11.4746 5.13119 11.0947 4.75039 10.6246 4.75039H9.34961V3.90039H7.64961V4.75039H7.43711C6.14766 4.75039 5.09961 5.89449 5.09961 7.30039C5.09961 8.70629 6.14766 9.85039 7.43711 9.85039H9.56211C9.90721 9.85039 10.1996 10.2397 10.1996 10.7004C10.1996 11.1611 9.90721 11.5504 9.56211 11.5504H5.94961C5.47956 11.5504 5.09961 11.9303 5.09961 12.4004C5.09961 12.8704 5.47956 13.2504 5.94961 13.2504H7.64961V14.1004H9.34961V13.2504H9.56211C10.8516 13.2504 11.8996 12.1063 11.8996 10.7004C11.8996 9.29449 10.8516 8.15039 9.56211 8.15039Z" fill="#40D04F"/>
</g>
<defs>
<clipPath id="clip0_1768_76061">
<rect width="17" height="17" fill="white" transform="translate(0 0.5)"/>
</clipPath>
</defs>
</svg>
