<svg width="19" height="19" viewBox="0 0 19 19" fill="none" xmlns="http://www.w3.org/2000/svg">
<g clip-path="url(#clip0_1437_64569)">
<path d="M11.0201 15.8351C11.0201 15.9843 10.9608 16.1274 10.8554 16.2329C10.7499 16.3384 10.6068 16.3976 10.4576 16.3976H8.20761C8.05843 16.3976 7.91535 16.3384 7.80986 16.2329C7.70437 16.1274 7.64511 15.9843 7.64511 15.8351C7.64511 15.686 7.70437 15.5429 7.80986 15.4374C7.91535 15.3319 8.05843 15.2726 8.20761 15.2726H10.4576C10.6068 15.2726 10.7499 15.3319 10.8554 15.4374C10.9608 15.5429 11.0201 15.686 11.0201 15.8351ZM9.33261 7.67889C9.49949 7.67889 9.66262 7.6294 9.80137 7.53669C9.94013 7.44398 10.0483 7.3122 10.1121 7.15803C10.176 7.00385 10.1927 6.8342 10.1601 6.67053C10.1276 6.50686 10.0472 6.35652 9.92923 6.23852C9.81123 6.12052 9.66089 6.04016 9.49722 6.0076C9.33355 5.97504 9.1639 5.99175 9.00972 6.05561C8.85555 6.11948 8.72377 6.22762 8.63106 6.36638C8.53835 6.50513 8.48886 6.66826 8.48886 6.83514C8.48886 7.05891 8.57776 7.27353 8.73599 7.43176C8.89422 7.58999 9.10883 7.67889 9.33261 7.67889ZM16.0123 11.1664L15.1404 15.0758C15.0994 15.2622 15.0113 15.4351 14.8845 15.5779C14.7578 15.7207 14.5965 15.8286 14.4162 15.8914C14.2939 15.9329 14.1657 15.9542 14.0365 15.9547C13.7834 15.9533 13.5382 15.8666 13.3404 15.7086L11.3857 14.1476H7.27949L5.3248 15.7086C5.12706 15.8666 4.88181 15.9533 4.6287 15.9547C4.49955 15.9542 4.37133 15.9329 4.24902 15.8914C4.0687 15.8286 3.90747 15.7207 3.78069 15.5779C3.65391 15.4351 3.56582 15.2622 3.5248 15.0758L2.65292 11.1664C2.61699 10.9982 2.61984 10.8241 2.66126 10.6572C2.70268 10.4902 2.78159 10.335 2.89199 10.2031L4.97324 7.69998C5.03522 6.8393 5.22724 5.99298 5.54277 5.18982C6.36542 3.06639 7.82792 1.6742 8.62949 1.03436C8.82928 0.874378 9.07791 0.787797 9.33385 0.789076C9.5898 0.790356 9.83756 0.879419 10.0357 1.04139C10.8303 1.68123 12.2717 3.07342 13.0873 5.19686C13.3912 5.98371 13.5806 6.8101 13.6498 7.65076L15.7732 10.2031C15.8836 10.335 15.9625 10.4902 16.004 10.6572C16.0454 10.8241 16.0482 10.9982 16.0123 11.1664ZM7.41308 13.0226H11.2451C12.2435 11.1242 14.2756 5.92811 9.33261 1.91326C8.01074 2.96795 4.03808 6.85623 7.41308 13.0226ZM6.35839 13.4445C5.62714 12.0664 5.17949 10.7211 5.01542 9.40858L3.75683 10.9203L4.62167 14.8297L6.35839 13.4445ZM14.9084 10.9203L13.6217 9.37342C13.467 10.6953 13.031 12.0523 12.2998 13.4375L14.0435 14.8297L14.9084 10.9203Z" fill="#9AA4BF"/>
</g>
<defs>
<clipPath id="clip0_1437_64569">
<rect width="18" height="18" fill="white" transform="translate(0.333008 0.0859375)"/>
</clipPath>
</defs>
</svg>
