<svg width="16" height="18" viewBox="0 0 16 18" fill="none" xmlns="http://www.w3.org/2000/svg">
<path d="M15.5942 11.135L14.3895 10.085C14.4465 9.72868 14.476 9.36491 14.476 9.00113C14.476 8.63735 14.4465 8.27358 14.3895 7.9173L15.5942 6.86723C15.6851 6.78793 15.7501 6.6823 15.7807 6.5644C15.8112 6.44649 15.8058 6.3219 15.7652 6.20719L15.7487 6.15843C15.417 5.21342 14.9204 4.33737 14.2829 3.57263L14.2498 3.53325C14.1724 3.44053 14.0693 3.37388 13.9541 3.34208C13.8388 3.31028 13.7169 3.31482 13.6042 3.35511L12.1089 3.89703C11.5572 3.43574 10.9411 3.07197 10.2753 2.81695L9.98652 1.22309C9.96473 1.10316 9.90767 0.992829 9.82292 0.906752C9.73816 0.820674 9.62972 0.762927 9.51201 0.741182L9.46235 0.731806C8.50413 0.555544 7.49626 0.555544 6.53804 0.731806L6.48838 0.741182C6.37067 0.762927 6.26223 0.820674 6.17747 0.906752C6.09272 0.992829 6.03566 1.10316 6.01387 1.22309L5.72328 2.82445C5.06281 3.07952 4.44774 3.4431 3.90248 3.90078L2.39619 3.35511C2.28357 3.3145 2.16149 3.30979 2.04618 3.34161C1.93087 3.37343 1.82779 3.44027 1.75063 3.53325L1.71753 3.57263C1.0807 4.33791 0.584177 5.21381 0.251696 6.15843L0.235144 6.20719C0.15238 6.44158 0.22043 6.7041 0.406188 6.86723L1.62557 7.92856C1.56855 8.28108 1.54097 8.6411 1.54097 8.99925C1.54097 9.35928 1.56855 9.71931 1.62557 10.07L0.406188 11.1313C0.315324 11.2106 0.250292 11.3162 0.219739 11.4341C0.189185 11.552 0.194558 11.6766 0.235144 11.7913L0.251696 11.8401C0.584589 12.7851 1.07749 13.6571 1.71753 14.4259L1.75063 14.4653C1.82798 14.558 1.93107 14.6246 2.04631 14.6564C2.16155 14.6882 2.28353 14.6837 2.39619 14.6434L3.90248 14.0977C4.45056 14.5571 5.06301 14.9209 5.72328 15.1741L6.01387 16.7754C6.03566 16.8953 6.09272 17.0057 6.17747 17.0918C6.26223 17.1778 6.37067 17.2356 6.48838 17.2573L6.53804 17.2667C7.50506 17.4439 8.49533 17.4439 9.46235 17.2667L9.51201 17.2573C9.62972 17.2356 9.73816 17.1778 9.82292 17.0918C9.90767 17.0057 9.96473 16.8953 9.98652 16.7754L10.2753 15.1816C10.9408 14.9272 11.5604 14.5622 12.1089 14.1015L13.6042 14.6434C13.7168 14.684 13.8389 14.6887 13.9542 14.6569C14.0695 14.6251 14.1726 14.5582 14.2498 14.4653L14.2829 14.4259C14.9229 13.6552 15.4158 12.7851 15.7487 11.8401L15.7652 11.7913C15.848 11.5607 15.78 11.2982 15.5942 11.135ZM13.0837 8.13857C13.1297 8.42171 13.1536 8.71236 13.1536 9.00301C13.1536 9.29365 13.1297 9.5843 13.0837 9.86744L12.9623 10.6194L14.3362 11.8176C14.1279 12.3068 13.865 12.7699 13.5527 13.1977L11.8459 12.5808L11.2684 13.0645C10.8289 13.4321 10.3396 13.7208 9.80996 13.9233L9.10923 14.1915L8.78001 16.0104C8.26057 16.0704 7.73614 16.0704 7.2167 16.0104L6.88749 14.1877L6.19227 13.9158C5.66811 13.7133 5.18072 13.4246 4.74483 13.0589L4.16733 12.5733L2.44953 13.1958C2.13686 12.7664 1.8757 12.3032 1.66603 11.8157L3.05462 10.6062L2.93507 9.85619C2.89093 9.57679 2.86702 9.28802 2.86702 9.00301C2.86702 8.71611 2.88909 8.42921 2.93507 8.14982L3.05462 7.39977L1.66603 6.19031C1.87386 5.7009 2.13686 5.23962 2.44953 4.81021L4.16733 5.43276L4.74483 4.9471C5.18072 4.58145 5.66811 4.29268 6.19227 4.09016L6.88933 3.82202L7.21854 1.99939C7.73535 1.93939 8.2632 1.93939 8.78185 1.99939L9.11106 3.81827L9.8118 4.08641C10.3396 4.28893 10.8307 4.5777 11.2703 4.94522L11.8478 5.42901L13.5545 4.81209C13.8672 5.24149 14.1284 5.70465 14.338 6.19218L12.9642 7.39039L13.0837 8.13857ZM8.00203 5.51526C6.21434 5.51526 4.76506 6.99287 4.76506 8.81549C4.76506 10.6381 6.21434 12.1157 8.00203 12.1157C9.78973 12.1157 11.239 10.6381 11.239 8.81549C11.239 6.99287 9.78973 5.51526 8.00203 5.51526ZM9.45867 10.3006C9.26762 10.4959 9.04057 10.6508 8.79059 10.7564C8.5406 10.8619 8.27261 10.9161 8.00203 10.9156C7.45212 10.9156 6.93531 10.6962 6.5454 10.3006C6.3538 10.1058 6.20186 9.87432 6.09833 9.61945C5.9948 9.36458 5.94172 9.09136 5.94214 8.81549C5.94214 8.25483 6.15733 7.72792 6.5454 7.33039C6.93531 6.93286 7.45212 6.71535 8.00203 6.71535C8.55195 6.71535 9.06876 6.93286 9.45867 7.33039C9.65027 7.52517 9.80221 7.75666 9.90574 8.01153C10.0093 8.2664 10.0623 8.53963 10.0619 8.81549C10.0619 9.37616 9.84674 9.90307 9.45867 10.3006Z" fill="white"/>
</svg>
