<svg width="15" height="16" viewBox="0 0 15 16" fill="none" xmlns="http://www.w3.org/2000/svg">
<path d="M11.0938 1.75C11.4501 1.74996 11.7931 1.88518 12.0536 2.12836C12.3141 2.37153 12.4725 2.70451 12.4969 3.06L12.5 3.15625V12.8425C12.5 13.1988 12.3648 13.5419 12.1216 13.8023C11.8785 14.0628 11.5455 14.2212 11.19 14.2456L11.0938 14.2487H3.90625C3.54992 14.2488 3.20686 14.1136 2.9464 13.8704C2.68595 13.6272 2.52751 13.2942 2.50313 12.9388L2.5 12.8425V3.15625C2.49996 2.79992 2.63518 2.45686 2.87836 2.1964C3.12153 1.93595 3.45451 1.77751 3.81 1.75313L3.90625 1.75H11.0938ZM11.0938 2.6875H3.90625C3.79298 2.6875 3.68354 2.72853 3.59817 2.80298C3.5128 2.87743 3.45728 2.98028 3.44187 3.0925L3.4375 3.15625V12.8425C3.4375 13.08 3.61375 13.2762 3.8425 13.3069L3.90625 13.3112H11.0938C11.207 13.3112 11.3165 13.2702 11.4018 13.1958C11.4872 13.1213 11.5427 13.0185 11.5581 12.9062L11.5625 12.8425V3.15625C11.5625 3.04298 11.5215 2.93354 11.447 2.84817C11.3726 2.7628 11.2697 2.70728 11.1575 2.69187L11.0938 2.6875ZM4.375 10.3431C4.375 10.2188 4.42439 10.0996 4.51229 10.0117C4.6002 9.92376 4.71943 9.87437 4.84375 9.87437H10.1562C10.2806 9.87437 10.3998 9.92376 10.4877 10.0117C10.5756 10.0996 10.625 10.2188 10.625 10.3431C10.625 10.4674 10.5756 10.5867 10.4877 10.6746C10.3998 10.7625 10.2806 10.8119 10.1562 10.8119H4.84375C4.71943 10.8119 4.6002 10.7625 4.51229 10.6746C4.42439 10.5867 4.375 10.4674 4.375 10.3431ZM4.375 5.34312C4.375 5.2188 4.42439 5.09958 4.51229 5.01167C4.6002 4.92376 4.71943 4.87438 4.84375 4.87438H10.1562C10.2806 4.87438 10.3998 4.92376 10.4877 5.01167C10.5756 5.09958 10.625 5.2188 10.625 5.34312C10.625 5.46745 10.5756 5.58667 10.4877 5.67458C10.3998 5.76249 10.2806 5.81187 10.1562 5.81187H4.84375C4.71943 5.81187 4.6002 5.76249 4.51229 5.67458C4.42439 5.58667 4.375 5.46745 4.375 5.34312ZM4.375 7.84312C4.375 7.7188 4.42439 7.59958 4.51229 7.51167C4.6002 7.42376 4.71943 7.37437 4.84375 7.37437H10.1562C10.2806 7.37437 10.3998 7.42376 10.4877 7.51167C10.5756 7.59958 10.625 7.7188 10.625 7.84312C10.625 7.96744 10.5756 8.08667 10.4877 8.17458C10.3998 8.26249 10.2806 8.31187 10.1562 8.31187H4.84375C4.71943 8.31187 4.6002 8.26249 4.51229 8.17458C4.42439 8.08667 4.375 7.96744 4.375 7.84312Z" fill="#9AA4BF"/>
</svg>
