<svg width="19" height="20" viewBox="0 0 19 20" fill="none" xmlns="http://www.w3.org/2000/svg">
<g clip-path="url(#clip0_102_4914)">
<path d="M10.8624 17.5C10.7239 17.7526 10.5252 17.9622 10.2861 18.1079C10.047 18.2537 9.77592 18.3304 9.49999 18.3304C9.22406 18.3304 8.95297 18.2537 8.71386 18.1079C8.47476 17.9622 8.27603 17.7526 8.13757 17.5M17.3752 14.1667H1.62476C2.25135 14.1667 2.85228 13.9033 3.29534 13.4344C3.73841 12.9656 3.98733 12.3297 3.98733 11.6667V7.49999C3.98733 5.95289 4.56812 4.46916 5.60195 3.3752C6.63577 2.28124 8.03794 1.66666 9.49999 1.66666C10.962 1.66666 12.3642 2.28124 13.398 3.3752C14.4319 4.46916 15.0126 5.95289 15.0126 7.49999V11.6667C15.0126 12.3297 15.2616 12.9656 15.7046 13.4344C16.1477 13.9033 16.7486 14.1667 17.3752 14.1667Z" stroke="#9AA4BF" stroke-width="2" stroke-linecap="round" stroke-linejoin="round"/>
</g>
<defs>
<clipPath id="clip0_102_4914">
<rect width="18.9006" height="20" fill="white" transform="translate(0.0496826)"/>
</clipPath>
</defs>
</svg>
