<svg width="29" height="28" viewBox="0 0 29 28" fill="none" xmlns="http://www.w3.org/2000/svg">
<path d="M14.6666 10.4859C12.6596 10.4859 11.0217 12.0653 11.0217 14.0007C11.0217 15.936 12.6596 17.5154 14.6666 17.5154C16.6737 17.5154 18.3116 15.936 18.3116 14.0007C18.3116 12.0653 16.6737 10.4859 14.6666 10.4859ZM25.5987 14.0007C25.5987 12.5452 25.6123 11.1029 25.5276 9.6501C25.4428 7.9626 25.0436 6.46494 23.7639 5.23096C22.4815 3.99434 20.9311 3.61201 19.1811 3.53028C17.6717 3.44854 16.176 3.46172 14.6694 3.46172C13.16 3.46172 11.6643 3.44854 10.1576 3.53028C8.40765 3.61201 6.85452 3.99698 5.57484 5.23096C4.29241 6.46758 3.89593 7.9626 3.81116 9.6501C3.7264 11.1056 3.74007 12.5479 3.74007 14.0007C3.74007 15.4535 3.7264 16.8984 3.81116 18.3513C3.89593 20.0388 4.29515 21.5364 5.57484 22.7704C6.85726 24.007 8.40765 24.3894 10.1576 24.4711C11.667 24.5528 13.1627 24.5396 14.6694 24.5396C16.1787 24.5396 17.6744 24.5528 19.1811 24.4711C20.9311 24.3894 22.4842 24.0044 23.7639 22.7704C25.0463 21.5338 25.4428 20.0388 25.5276 18.3513C25.6151 16.8984 25.5987 15.4562 25.5987 14.0007ZM14.6666 19.4086C11.5631 19.4086 9.05843 16.9934 9.05843 14.0007C9.05843 11.008 11.5631 8.59278 14.6666 8.59278C17.7701 8.59278 20.2748 11.008 20.2748 14.0007C20.2748 16.9934 17.7701 19.4086 14.6666 19.4086ZM20.5045 9.63428C19.7799 9.63428 19.1948 9.07002 19.1948 8.37129C19.1948 7.67256 19.7799 7.1083 20.5045 7.1083C21.2291 7.1083 21.8143 7.67256 21.8143 8.37129C21.8145 8.53721 21.7808 8.70154 21.715 8.85486C21.6493 9.00819 21.5528 9.1475 21.4311 9.26482C21.3095 9.38214 21.165 9.47517 21.006 9.53857C20.847 9.60196 20.6766 9.63449 20.5045 9.63428Z" fill="#9AA4BF"/>
</svg>
