<svg width="16" height="17" viewBox="0 0 16 17" fill="none" xmlns="http://www.w3.org/2000/svg">
<g clip-path="url(#clip0_1302_6016)">
<path d="M15.8032 7.76135C15.6971 8.05148 15.5195 8.26748 15.1941 8.30695C14.9472 8.33735 14.6981 8.35068 14.4496 8.36935C13.872 8.41308 13.2939 8.45575 12.7163 8.49895C12.6917 8.50055 12.6677 8.50801 12.6293 8.51601C12.6293 8.57948 12.6293 8.63921 12.6293 8.69841C12.6293 10.8792 12.6293 13.0605 12.6293 15.2413C12.6293 15.5011 12.5989 15.5448 12.3568 15.6296C10.7227 16.2024 9.03626 16.3917 7.31413 16.3149C6.10506 16.2611 4.92106 16.0664 3.77119 15.6803C3.70879 15.6595 3.64746 15.6349 3.58506 15.612C3.38773 15.5389 3.35253 15.4888 3.35253 15.2739C3.35253 13.0824 3.35253 10.8915 3.35253 8.70001C3.35253 8.64028 3.35253 8.58001 3.35253 8.50855C3.05706 8.48401 2.77493 8.45948 2.49226 8.43761C1.94506 8.39495 1.39786 8.35388 0.850128 8.31281C0.367995 8.27655 0.0719948 7.85788 0.222395 7.39601C0.582395 6.29095 0.953061 5.18961 1.31999 4.08668C1.44479 3.71121 1.57013 3.33575 1.69813 2.96081C1.86399 2.47281 2.19146 2.14161 2.67359 1.96081C3.72853 1.56561 4.784 1.16988 5.83893 0.773614C5.88586 0.756014 5.93119 0.73308 5.97706 0.71228C7.33013 0.71228 8.68266 0.71228 10.0357 0.71228C10.0747 0.735214 10.1499 0.772547 10.1653 0.778414C11.1952 1.16561 12.224 1.55495 13.256 1.93628C13.7877 2.13308 14.1371 2.49148 14.312 3.03228C14.5712 3.83281 14.8411 4.62961 15.1083 5.42748C15.3381 6.11388 15.5712 6.79921 15.8032 7.48508C15.8032 7.57841 15.8032 7.67015 15.8032 7.76135ZM3.35253 8.01681C3.35253 7.45788 3.35199 7.93681 3.35306 7.40348C3.35359 7.21095 3.44426 7.09841 3.59573 7.09788C3.74719 7.09681 3.83839 7.20988 3.84053 7.40135C3.84106 7.43708 3.84053 7.47228 3.84053 7.50801C3.84053 10.3555 3.84159 9.93415 3.83733 12.7816C3.83733 12.8989 3.87413 12.9464 3.98293 12.9821C5.06186 13.3368 6.1712 13.5197 7.30346 13.5725C8.8912 13.6461 10.4491 13.4803 11.968 12.9933C12.1003 12.9512 12.1451 12.8973 12.1445 12.7533C12.1392 9.88561 12.1403 10.2861 12.1408 7.41841C12.1408 7.21308 12.2288 7.09841 12.384 7.09788C12.5392 7.09735 12.6283 7.21255 12.6288 7.41735C12.6293 7.80401 12.6288 7.17841 12.6288 7.56455C12.6288 7.71015 12.6288 7.85628 12.6288 8.00935C12.672 8.00935 12.6971 8.01095 12.7216 8.00935C13.5173 7.94855 14.3131 7.88881 15.1088 7.82481C15.2795 7.81095 15.3451 7.69468 15.2869 7.51921C14.8005 6.05468 14.3125 4.59068 13.8245 3.12668C13.7093 2.78161 13.4784 2.54748 13.1387 2.42001C12.8485 2.31121 12.5595 2.20028 12.2699 2.09148C11.8811 1.94588 11.4923 1.80188 11.1019 1.65681C10.6683 3.37468 9.15946 4.15975 7.93866 4.13575C6.68746 4.11175 5.28746 3.27868 4.88426 1.66375C4.86559 1.66748 4.84533 1.66908 4.8272 1.67601C4.15199 1.92881 3.47573 2.17788 2.80266 2.43601C2.48639 2.55761 2.26986 2.78748 2.16266 3.10961C1.67199 4.57735 1.18346 6.04668 0.695462 7.51601C0.633061 7.70428 0.703995 7.80988 0.901328 7.82695C1.22026 7.85415 1.53973 7.87921 1.85919 7.90375C2.34986 7.94161 2.84106 7.97788 3.35253 8.01681ZM6.32053 1.20881C6.30879 1.97201 7.18506 2.69521 8.07786 2.66481C8.87573 2.63761 9.70773 1.87175 9.656 1.20881C8.544 1.20881 7.43253 1.20881 6.32053 1.20881ZM5.89973 1.26908C5.78239 1.31228 5.67999 1.35815 5.57279 1.38695C5.45813 1.41841 5.44213 1.47175 5.47093 1.58535C5.75679 2.70375 6.67359 3.57575 7.81226 3.63921C9.4096 3.63921 9.96906 2.92188 10.3845 1.82375C10.4379 1.68348 10.4747 1.53681 10.5221 1.38375C10.3552 1.32135 10.2101 1.26695 10.0523 1.20828C9.95306 1.73308 9.71893 2.32188 9.32693 2.66535C8.9344 3.00881 8.58666 3.13468 8.06453 3.15281C7.59893 3.16881 7.1696 3.04721 6.78186 2.78855C6.25119 2.43495 6.02293 1.89735 5.89973 1.26908Z" fill="#7F8593"/>
<path d="M8.4341 6.4472L8.03677 6.8088L7.7301 6.4472H5.99517L5.34503 9.36507H7.3333L7.6757 9.03387L7.99517 9.36507H9.98343L10.6336 6.4472H8.4341ZM9.69277 7.52774H8.6885L8.43677 8.32347H9.5157L9.4101 8.79654H8.16103L7.81543 8.43014L8.0437 7.65307C8.05597 7.61627 8.06983 7.58054 8.08476 7.5464L7.06503 8.79974H6.0949L6.49703 7.0984H7.06876L6.75623 8.276L7.77917 7.0984H8.4501H9.78876L9.69277 7.52774Z" fill="#F5F5F5"/>
</g>
<defs>
<clipPath id="clip0_1302_6016">
<rect width="16" height="16" fill="white" transform="translate(0 0.5)"/>
</clipPath>
</defs>
</svg>
