<svg width="16" height="17" viewBox="0 0 16 17" fill="none" xmlns="http://www.w3.org/2000/svg">
<path d="M7.75471 14.7191L7.18671 13.7356C7.15204 13.6754 7.15204 13.6012 7.18671 13.541L7.75471 12.5575C7.78937 12.4972 7.85391 12.4604 7.92324 12.4604H9.05871C9.12804 12.4604 9.19257 12.4978 9.22724 12.5575L9.79524 13.541C9.82991 13.6012 9.82991 13.6754 9.79524 13.7356L9.22724 14.7191C9.19257 14.7794 9.12804 14.8162 9.05871 14.8162H7.92324C7.85337 14.8162 7.78937 14.7794 7.75471 14.7191ZM9.40217 13.638L8.94671 12.8492H8.03577L7.58031 13.638L8.03577 14.4268H8.94671L9.40217 13.638Z" fill="#7F8593"/>
<path d="M7.72109 14.7384L7.15309 13.7549C7.11149 13.6829 7.11149 13.5933 7.15309 13.5213L7.72109 12.5378C7.76269 12.4658 7.84002 12.421 7.92322 12.421H9.05869C9.14189 12.421 9.21922 12.4658 9.26082 12.5378L9.82882 13.5213C9.87042 13.5933 9.87042 13.6829 9.82882 13.7549L9.26082 14.7384C9.21922 14.8104 9.14189 14.8552 9.05869 14.8552H7.92322C7.84002 14.8552 7.76215 14.8104 7.72109 14.7384ZM7.92322 12.4989C7.86775 12.4989 7.81602 12.5288 7.78829 12.5768L7.22029 13.5602C7.19255 13.6082 7.19255 13.668 7.22029 13.716L7.78829 14.6994C7.81602 14.7474 7.86775 14.7773 7.92322 14.7773H9.05869C9.11415 14.7773 9.16589 14.7474 9.19362 14.6994L9.76162 13.716C9.78935 13.668 9.78935 13.6082 9.76162 13.5602L9.19362 12.5768C9.16589 12.5288 9.11415 12.4989 9.05869 12.4989H7.92322ZM7.53495 13.6381L8.01282 12.8104H8.96909L9.44695 13.6381L8.96909 14.4658H8.01282L7.53495 13.6381ZM9.21815 13.5677L8.91575 13.044C8.89069 13.0002 8.84375 12.9736 8.79362 12.9736H8.18882C8.13815 12.9736 8.09175 13.0002 8.06669 13.044L7.76429 13.5677C7.73922 13.6114 7.73922 13.6653 7.76429 13.709L8.06669 14.2328C8.09175 14.2765 8.13869 14.3032 8.18882 14.3032H8.79362C8.84429 14.3032 8.89069 14.2765 8.91575 14.2328L9.21815 13.709C9.24322 13.6653 9.24322 13.6114 9.21815 13.5677Z" fill="#7F8593"/>
<path d="M15.9232 2.30475C15.8336 2.48821 15.6832 2.54795 15.4848 2.54528C14.9925 2.53835 14.4997 2.54155 14.0075 2.54368C13.4917 2.54581 13.1413 2.81088 13 3.30261C12.7728 4.09461 12.5461 4.88715 12.3195 5.67968C11.8581 7.28875 11.3979 8.89835 10.9349 10.5069C10.7605 11.1122 10.3685 11.5154 9.76001 11.6706C9.51148 11.7335 9.24161 11.7261 8.98135 11.7266C7.06775 11.7309 5.15415 11.7298 3.24055 11.7282C2.46295 11.7277 1.83255 11.3053 1.62028 10.5997C1.13708 8.99168 0.669879 7.37888 0.203746 5.76555C0.0853457 5.35701 0.209612 5.00555 0.530679 4.72928C0.740812 4.54848 0.994679 4.51115 1.26455 4.51115C4.77868 4.51381 8.29281 4.51221 11.8069 4.51595C11.9307 4.51595 11.984 4.48501 12.0176 4.36075C12.1413 3.90101 12.2603 3.43861 12.4171 2.99008C12.6373 2.35861 13.0965 1.96875 13.7632 1.90955C14.3333 1.85888 14.9109 1.89195 15.4853 1.88021C15.6837 1.87595 15.8341 1.93675 15.9237 2.12075C15.9232 2.18208 15.9232 2.24341 15.9232 2.30475ZM11.4277 5.26048C8.09121 5.26048 4.75415 5.25941 1.41761 5.26475C1.30721 5.26475 1.17868 5.29995 1.09121 5.36395C0.963746 5.45675 0.987746 5.60555 1.02935 5.74688C1.31788 6.72608 1.60375 7.70581 1.89068 8.68501C2.04535 9.21301 2.19948 9.74048 2.35521 10.2679C2.48588 10.7117 2.84108 10.9799 3.30455 10.9799C5.27575 10.981 7.24695 10.981 9.21815 10.9799C9.68855 10.9799 10.04 10.7234 10.1696 10.2743C10.6427 8.63701 11.1109 6.99808 11.5808 5.35968C11.5888 5.33195 11.5899 5.30208 11.5968 5.25995C11.5349 5.26048 11.4811 5.26048 11.4277 5.26048Z" fill="#7F8593"/>
<path d="M3.36481 14.7191L2.79681 13.7356C2.76215 13.6754 2.76215 13.6012 2.79681 13.541L3.36481 12.5575C3.39948 12.4972 3.46401 12.4604 3.53335 12.4604H4.66881C4.73815 12.4604 4.80268 12.4978 4.83735 12.5575L5.40535 13.541C5.44001 13.6012 5.44001 13.6754 5.40535 13.7356L4.83735 14.7191C4.80268 14.7794 4.73815 14.8162 4.66881 14.8162H3.53335C3.46401 14.8162 3.39948 14.7794 3.36481 14.7191ZM5.01228 13.638L4.55681 12.8492H3.64588L3.19041 13.638L3.64588 14.4268H4.55681L5.01228 13.638Z" fill="#7F8593"/>
<path d="M3.33119 14.7384L2.76319 13.7549C2.72159 13.6829 2.72159 13.5933 2.76319 13.5213L3.33119 12.5378C3.37279 12.4658 3.45013 12.421 3.53333 12.421H4.66879C4.75199 12.421 4.82933 12.4658 4.87093 12.5378L5.43893 13.5213C5.48053 13.5933 5.48053 13.6829 5.43893 13.7549L4.87093 14.7384C4.82933 14.8104 4.75199 14.8552 4.66879 14.8552H3.53333C3.45013 14.8552 3.37279 14.8104 3.33119 14.7384ZM3.53333 12.4989C3.47786 12.4989 3.42613 12.5288 3.39839 12.5768L2.83039 13.5602C2.80266 13.6082 2.80266 13.668 2.83039 13.716L3.39839 14.6994C3.42613 14.7474 3.47786 14.7773 3.53333 14.7773H4.66879C4.72426 14.7773 4.77599 14.7474 4.80373 14.6994L5.37173 13.716C5.39946 13.668 5.39946 13.6082 5.37173 13.5602L4.80373 12.5768C4.77599 12.5288 4.72426 12.4989 4.66879 12.4989H3.53333ZM3.14506 13.6381L3.62293 12.8104H4.57919L5.05706 13.6381L4.57919 14.4658H3.62293L3.14506 13.6381ZM4.82826 13.5677L4.52586 13.044C4.50079 13.0002 4.45386 12.9736 4.40373 12.9736H3.79893C3.74826 12.9736 3.70186 13.0002 3.67679 13.044L3.37439 13.5677C3.34933 13.6114 3.34933 13.6653 3.37439 13.709L3.67679 14.2328C3.70186 14.2765 3.74879 14.3032 3.79893 14.3032H4.40373C4.45439 14.3032 4.50079 14.2765 4.52586 14.2328L4.82826 13.709C4.85333 13.6653 4.85333 13.6114 4.82826 13.5677Z" fill="#7F8593"/>
<path d="M6.6555 6.85303L6.33443 7.14529L6.08643 6.85303H4.68537L4.16003 9.20983H5.7659L6.0427 8.94263L6.30083 9.20983H7.9067L8.43203 6.85303H6.6555ZM7.67203 7.72556H6.86083L6.6571 8.36823H7.52857L7.44323 8.75063H6.43417L6.1547 8.45463L6.33923 7.82689C6.34883 7.79703 6.36003 7.76823 6.3723 7.74049L5.5483 8.75276H4.7659L5.0907 7.37836H5.55257L5.3003 8.32983L6.12643 7.37836H6.6683H7.7499L7.67203 7.72556Z" fill="#F5F5F5"/>
</svg>
