<svg width="16" height="17" viewBox="0 0 16 17" fill="none" xmlns="http://www.w3.org/2000/svg">
<path d="M0.186157 3.98157C0.274691 3.85624 0.401091 3.82637 0.547224 3.82691C1.24909 3.83011 1.95149 3.82691 2.65336 3.82957C2.76909 3.83011 2.86722 3.80877 2.96536 3.73784C3.23362 3.54317 3.54456 3.50424 3.86669 3.51757C3.93442 3.52024 4.01602 3.53517 4.02509 3.42531C4.03416 3.31864 4.01656 3.24931 3.88269 3.25357C3.64909 3.26104 3.41442 3.25731 3.18082 3.25464C2.98349 3.25251 2.90082 3.17197 2.89922 2.97677C2.89656 2.68664 2.89656 2.39651 2.89922 2.10691C2.90136 1.91117 2.98082 1.82957 3.17442 1.81571C3.22509 1.81197 3.27629 1.81357 3.32696 1.81357C6.45069 1.81357 9.57496 1.81411 12.6987 1.81464C12.7648 1.81464 12.832 1.81197 12.8966 1.82211C13.0134 1.84077 13.0934 1.90637 13.1072 2.03011C13.144 2.35971 13.1387 2.69091 13.1142 3.01997C13.1014 3.19331 13.0176 3.25197 12.8358 3.25411C12.607 3.25677 12.3776 3.25677 12.1488 3.25464C12.0592 3.25357 12.0054 3.27437 12.0038 3.38051C12.0022 3.48931 12.0491 3.52717 12.1504 3.52024C12.5131 3.49624 12.848 3.57197 13.1435 3.79331C13.2054 3.83971 13.2795 3.82904 13.3499 3.82904C14.0518 3.82957 14.7542 3.82904 15.456 3.82957C15.7531 3.82957 15.8176 3.89304 15.8182 4.18584C15.8187 4.72504 15.8198 5.26424 15.8176 5.80397C15.8128 7.03171 15.0251 8.14477 13.864 8.54157C13.6896 8.60131 13.6384 8.68344 13.6448 8.85784C13.6576 9.19811 13.6486 9.53944 13.6486 9.88024C13.6486 9.92611 13.6496 9.97197 13.6454 10.0173C13.6214 10.252 13.4566 10.3341 13.2592 10.2034C12.8822 9.95331 12.5051 9.70211 12.135 9.44131C12.0187 9.35971 11.9355 9.36557 11.823 9.44451C11.4646 9.69571 11.0998 9.93677 10.7366 10.181C10.647 10.2413 10.5552 10.3021 10.4416 10.2365C10.3334 10.1741 10.32 10.0696 10.3206 9.95864C10.3216 9.73997 10.319 9.52131 10.3211 9.30211C10.3222 9.20931 10.2912 9.19544 10.2139 9.24184C9.94456 9.40557 9.67362 9.56717 9.40269 9.72877C9.33869 9.76717 9.31469 9.82211 9.31469 9.89411C9.31522 10.1538 9.31682 10.413 9.31362 10.6722C9.31202 10.7773 9.35576 10.8162 9.45976 10.8152C9.78509 10.812 10.111 10.8141 10.4368 10.8146C10.7184 10.8152 10.783 10.8808 10.784 11.1682C10.7846 11.3309 10.7872 11.4941 10.7835 11.6568C10.7814 11.7544 10.8219 11.7954 10.9195 11.7922C11.0363 11.7885 11.1536 11.7912 11.2704 11.7917C11.7115 11.7949 12.0043 12.0866 12.0075 12.5309C12.0102 12.9176 12.0134 13.3042 12.0054 13.6909C12.0027 13.8333 12.0539 13.8733 12.1915 13.8738C12.8011 13.8765 13.1344 14.2152 13.135 14.8205C13.1355 15.3037 13.1296 15.3096 12.6518 15.3096C9.53816 15.3101 6.42456 15.3101 3.31042 15.3106C3.24429 15.3106 3.17762 15.3133 3.11256 15.3048C2.99949 15.2898 2.91842 15.2221 2.90989 15.109C2.89496 14.917 2.87789 14.7218 2.92429 14.532C3.02189 14.1309 3.35629 13.8776 3.78669 13.8706C4.02829 13.8669 4.02829 13.8669 4.02829 13.628C4.02829 13.2717 4.02776 12.9154 4.02829 12.5597C4.02882 12.0909 4.32002 11.7874 4.78989 11.7677C4.89656 11.7634 5.00376 11.7629 5.11042 11.7666C5.21602 11.7704 5.25602 11.7229 5.25389 11.62C5.25016 11.4472 5.25176 11.2738 5.25336 11.101C5.25602 10.869 5.33602 10.7869 5.56536 10.7853C5.89602 10.7832 6.22669 10.7816 6.55736 10.7864C6.67416 10.788 6.72269 10.749 6.71949 10.628C6.71362 10.3789 6.71629 10.1293 6.71789 9.88024C6.71842 9.80237 6.69709 9.74531 6.62456 9.70424C6.34989 9.54904 6.07682 9.39117 5.80589 9.23064C5.69976 9.16771 5.68642 9.21837 5.68749 9.30957C5.68909 9.53357 5.68696 9.75704 5.68802 9.98104C5.68856 10.0829 5.66829 10.1752 5.57016 10.228C5.46989 10.2818 5.38402 10.2392 5.30082 10.1826C4.92589 9.92931 4.54722 9.68024 4.17656 9.42051C4.07202 9.34744 4.00216 9.34637 3.89656 9.42104C3.53922 9.67384 3.17336 9.91331 2.81069 10.1581C2.71522 10.2226 2.61549 10.2797 2.49869 10.2237C2.37549 10.165 2.37922 10.0472 2.37922 9.93304C2.37976 9.53624 2.37762 9.13944 2.38029 8.74264C2.38082 8.65517 2.35736 8.60451 2.26669 8.57411C1.09069 8.17997 0.399491 7.37357 0.206424 6.14531L0.186157 3.98157ZM8.01496 3.25517V3.25571C6.89602 3.25571 5.77709 3.25837 4.65869 3.25251C4.50349 3.25144 4.45922 3.29837 4.46029 3.45197C4.46616 4.46424 4.45922 5.47597 4.46456 6.48824C4.46989 7.43064 4.88856 8.14477 5.68749 8.63597C6.10776 8.89411 6.53282 9.14477 6.95949 9.39224C7.09816 9.47277 7.16002 9.57571 7.15522 9.73837C7.14616 10.0333 7.15629 10.3282 7.15096 10.6232C7.14882 10.7373 7.18136 10.789 7.30562 10.7874C7.76856 10.7826 8.23096 10.7826 8.69389 10.7874C8.81282 10.7885 8.85549 10.7469 8.85336 10.6274C8.84749 10.3277 8.85762 10.0274 8.84909 9.72717C8.84482 9.56984 8.90616 9.47224 9.04056 9.39544C9.46456 9.15384 9.88802 8.91064 10.3046 8.65624C11.1142 8.16077 11.5376 7.43917 11.5408 6.48397C11.544 5.47704 11.5414 4.47011 11.5414 3.46317C11.5414 3.25571 11.5403 3.25517 11.327 3.25464C10.2219 3.25464 9.11842 3.25517 8.01496 3.25517ZM7.97602 14.8722C7.97602 14.8728 7.97602 14.8733 7.97602 14.8733C9.28322 14.8733 10.591 14.8733 11.8982 14.8733C12.0966 14.8733 12.295 14.8696 12.4934 14.8744C12.608 14.877 12.6448 14.8269 12.6406 14.7176C12.6315 14.4781 12.4667 14.3298 12.1883 14.3298C11.0688 14.3288 9.94989 14.3298 8.83042 14.3293C8.59949 14.3293 8.46776 14.2408 8.46989 14.0909C8.47202 13.9378 8.58082 13.868 8.81976 13.868C9.65922 13.868 10.4987 13.8685 11.3382 13.868C11.5387 13.868 11.5403 13.8664 11.5403 13.6616C11.5408 13.2904 11.5414 12.9186 11.5398 12.5474C11.5387 12.3154 11.4486 12.2269 11.2139 12.2258C10.7712 12.2242 10.3286 12.2253 9.88589 12.2253C8.19682 12.2253 6.50776 12.2253 4.81869 12.2264C4.55309 12.2264 4.46242 12.3186 4.46136 12.5853C4.45976 12.9565 4.46456 13.3282 4.45922 13.6994C4.45762 13.8232 4.49602 13.8749 4.62509 13.869C4.80269 13.8616 4.98136 13.8648 5.15896 13.8701C5.28109 13.8738 5.36269 13.9394 5.37442 14.0648C5.38669 14.1933 5.32536 14.2824 5.19789 14.3117C5.13442 14.3266 5.06722 14.3288 5.00109 14.3293C4.58402 14.3309 4.16696 14.3282 3.74989 14.3314C3.54402 14.333 3.41549 14.4274 3.35736 14.6072C3.28909 14.8178 3.32856 14.8722 3.54882 14.8722C5.02509 14.8722 6.50082 14.8722 7.97602 14.8722ZM13.2139 7.18051H13.2134C13.2134 6.46317 13.2139 5.74584 13.2128 5.02851C13.2128 4.86531 13.2043 4.70157 13.1472 4.54744C13.008 4.17091 12.6966 3.97891 12.232 3.97944C12.0006 3.97944 12 3.97997 12 4.20557C11.9995 4.95331 12.0054 5.70104 11.9979 6.44931C11.9894 7.27971 11.727 8.02691 11.0971 8.57571C10.7931 8.84077 10.7126 9.11384 10.7536 9.47224C10.7579 9.51011 10.7328 9.56344 10.7792 9.58211C10.8192 9.59811 10.8518 9.55491 10.8843 9.53251C11.183 9.32931 11.4827 9.12771 11.7776 8.91971C11.9168 8.82157 12.0395 8.81784 12.1814 8.91917C12.4667 9.12291 12.76 9.31651 13.0512 9.51224C13.0912 9.53891 13.1312 9.59437 13.184 9.56504C13.2352 9.53624 13.2128 9.47224 13.2128 9.42371C13.2144 8.67597 13.2139 7.92824 13.2139 7.18051ZM2.80909 7.10797C2.80909 7.88131 2.80856 8.65411 2.81016 9.42744C2.81016 9.47544 2.78776 9.53891 2.84482 9.56504C2.89122 9.58584 2.92802 9.53784 2.96482 9.51331C3.22189 9.33997 3.47789 9.16451 3.73496 8.99064C4.02456 8.79491 4.03309 8.79651 4.32589 8.99971C4.59309 9.18531 4.86189 9.36931 5.13176 9.55117C5.16429 9.57304 5.23469 9.64557 5.24109 9.54851C5.25496 9.34157 5.24376 9.13251 5.23682 8.92397C5.23522 8.87757 5.18562 8.85091 5.14989 8.82211C4.37656 8.20024 4.01069 7.38477 4.00269 6.40131C3.99842 5.85197 4.00162 5.30264 4.00162 4.75331C4.00162 4.54477 4.00109 4.33624 4.00162 4.12771C4.00162 4.04984 3.98882 3.99171 3.89069 3.97944C3.17229 3.89091 2.78882 4.39917 2.80376 4.91064C2.82509 5.64291 2.80909 6.37571 2.80909 7.10797ZM8.00109 2.81517C8.00109 2.81571 8.00109 2.81571 8.00109 2.81624C9.46082 2.81624 10.9206 2.81624 12.3808 2.81624C12.6443 2.81624 12.6443 2.81624 12.6443 2.54744C12.6443 2.27811 12.6443 2.27811 12.3814 2.27811C9.47682 2.27864 6.57229 2.27864 3.66776 2.27917C3.33336 2.27917 3.35896 2.23864 3.35842 2.59224C3.35789 2.81411 3.35896 2.81464 3.57549 2.81464C5.05122 2.81517 6.52589 2.81517 8.00109 2.81517ZM13.648 6.71064C13.648 7.13304 13.6475 7.55544 13.648 7.97731C13.6486 8.14904 13.6582 8.15757 13.8192 8.08877C14.6454 7.73784 15.1584 7.11917 15.3152 6.23917C15.4235 5.63171 15.343 5.01091 15.3558 4.39597C15.3579 4.29411 15.2838 4.28824 15.208 4.28824C14.6944 4.28824 14.1803 4.28931 13.6667 4.28771C13.5739 4.28717 13.5318 4.30904 13.5723 4.41197C13.6016 4.48717 13.6208 4.56771 13.6315 4.64771C13.6464 4.76557 13.7014 4.81091 13.8224 4.80717C14.0662 4.79971 14.311 4.80131 14.5547 4.80771C14.7611 4.81304 14.8411 4.89677 14.8432 5.09891C14.8459 5.31757 14.8454 5.53624 14.8432 5.75544C14.8416 5.91491 14.759 6.01784 14.6336 6.02584C14.4982 6.03491 14.3984 5.93837 14.3862 5.77357C14.3776 5.66211 14.3771 5.54957 14.383 5.43811C14.3894 5.31597 14.3488 5.25891 14.2182 5.26691C14.0864 5.27491 13.9531 5.27544 13.8214 5.26691C13.6864 5.25784 13.6438 5.31171 13.6459 5.44344C13.6523 5.86637 13.6486 6.28877 13.648 6.71064ZM0.645357 5.23171C0.645891 5.23171 0.645891 5.23171 0.646424 5.23171C0.646424 5.44557 0.636291 5.65944 0.648024 5.87277C0.704024 6.88877 1.18936 7.62051 2.11362 8.05304C2.34402 8.16077 2.34882 8.15331 2.34882 7.89197C2.34882 7.85624 2.34402 7.81997 2.34936 7.78531C2.37176 7.63757 2.30402 7.56184 2.17389 7.49144C1.64856 7.20664 1.31469 6.76664 1.19416 6.17891C1.11469 5.79224 1.15949 5.39757 1.16376 5.00717C1.16536 4.87171 1.27096 4.80504 1.40482 4.80291C1.60322 4.80024 1.80162 4.80184 2.00002 4.80131C2.31469 4.80131 2.31416 4.80131 2.38936 4.50477C2.39682 4.47544 2.40322 4.44451 2.41602 4.41731C2.46509 4.31544 2.43042 4.28291 2.32322 4.28344C1.81442 4.28664 1.30562 4.28664 0.797357 4.28397C0.686424 4.28344 0.642157 4.32717 0.644291 4.43811C0.648024 4.70264 0.645357 4.96717 0.645357 5.23171ZM8.00109 11.2493C7.33016 11.2493 6.65922 11.2488 5.98829 11.2498C5.65229 11.2504 5.68856 11.2194 5.68696 11.5538C5.68589 11.7656 5.68749 11.7666 5.89762 11.7666C7.26509 11.7672 8.63202 11.7677 9.99949 11.7666C10.3536 11.7666 10.3072 11.7997 10.3195 11.4461C10.3248 11.292 10.2752 11.2445 10.1206 11.2461C9.41389 11.253 8.70776 11.2488 8.00109 11.2493ZM2.34829 6.17677C2.34829 5.92237 2.34562 5.66851 2.34936 5.41411C2.35096 5.31331 2.31896 5.26264 2.21016 5.26584C2.04749 5.27064 1.88482 5.26904 1.72216 5.26637C1.63096 5.26477 1.59416 5.30531 1.59629 5.39544C1.59949 5.53251 1.59149 5.67011 1.59842 5.80717C1.62242 6.28557 1.81709 6.67864 2.19736 6.97464C2.23256 7.00184 2.26989 7.04824 2.31576 7.03064C2.36856 7.01037 2.34669 6.95064 2.34722 6.90797C2.34989 6.66424 2.34882 6.42051 2.34829 6.17677Z" fill="#7F8593"/>
<path d="M8.35893 4.84558L8.02453 5.15011L7.76639 4.84558H6.30666L5.75946 7.30105H7.43253L7.72053 7.02265L7.98933 7.30105H9.66239L10.2096 4.84558H8.35893ZM9.41813 5.75491H8.57279L8.36106 6.42478H9.26933L9.18079 6.82318H8.12959L7.83839 6.51491L8.03093 5.86105C8.04106 5.83011 8.05279 5.79971 8.06559 5.77091L7.20746 6.82531H6.39093L6.72906 5.39331H7.21013L6.94719 6.38425L7.80799 5.39331H8.37279H9.49919L9.41813 5.75491Z" fill="#F5F5F5"/>
</svg>
