<svg width="16" height="20" viewBox="0 0 16 20" fill="none" xmlns="http://www.w3.org/2000/svg">
<path d="M8 0.5C8 0.5 12.5 2.54 12.5 11C12.5 13.49 11.46 16.57 10.9 18H5.1C4.54 16.57 3.5 13.49 3.5 11C3.5 2.54 8 0.5 8 0.5ZM10 9C10 7.9 9.1 7 8 7C6.9 7 6 7.9 6 9C6 10.1 6.9 11 8 11C9.1 11 10 10.1 10 9ZM3.69 18.52C3.21 17.29 2.17 14.35 2.02 11.65L0.89 12.4C0.33 12.78 0 13.4 0 14.07V20L3.69 18.52V18.52ZM16 20V14.07C16 13.4 15.67 12.78 15.11 12.41L13.98 11.66C13.83 14.35 12.78 17.3 12.31 18.53L16 20Z" fill="#2A334B"/>
</svg>
