<svg width="30" height="28" viewBox="0 0 30 28" fill="none" xmlns="http://www.w3.org/2000/svg">
<path d="M15.1666 2.1875C8.16018 2.1875 2.47913 7.47676 2.47913 14C2.47913 20.5232 8.16018 25.8125 15.1666 25.8125C22.1731 25.8125 27.8541 20.5232 27.8541 14C27.8541 7.47676 22.1731 2.1875 15.1666 2.1875ZM21.264 11.0917C21.2725 11.2156 21.2725 11.3448 21.2725 11.4714C21.2725 15.3421 18.1063 19.8008 12.3204 19.8008C10.5363 19.8008 8.88235 19.3183 7.48899 18.4877C7.74387 18.5141 7.98743 18.5246 8.24797 18.5246C9.72063 18.5246 11.0743 18.0605 12.1533 17.2748C10.7713 17.2484 9.61018 16.4047 9.2137 15.2445C9.69797 15.3104 10.1341 15.3104 10.6325 15.1918C9.92093 15.0572 9.28131 14.6974 8.82236 14.1735C8.3634 13.6495 8.11341 12.9938 8.11487 12.3178V12.2809C8.53118 12.4997 9.02112 12.6342 9.53372 12.6526C9.1028 12.3853 8.74941 12.023 8.50487 11.598C8.26033 11.173 8.13221 10.6984 8.13186 10.2163C8.13186 9.67051 8.28479 9.17217 8.5595 8.73975C9.34936 9.64503 10.335 10.3854 11.4523 10.9128C12.5696 11.4402 13.7937 11.7428 15.0448 11.801C14.6002 9.81025 16.1975 8.19922 18.1176 8.19922C19.0239 8.19922 19.8395 8.55254 20.4144 9.12207C21.1252 8.99814 21.8049 8.75029 22.411 8.41807C22.1759 9.0957 21.6831 9.66787 21.0289 10.0291C21.6633 9.96582 22.275 9.80234 22.8414 9.57295C22.4138 10.1583 21.8785 10.6777 21.264 11.0917Z" fill="#9AA4BF"/>
</svg>
